{"accessors":[{"name":"Bleu.1-Mesh_positions","componentType":5126,"count":24,"min":[94.12300109863281,166.71556091308594,-605.2119750976562],"max":[154.956787109375,212.4139404296875,-587.1791381835938],"type":"VEC3","bufferView":0,"byteOffset":0},{"name":"Bleu.1-Mesh_normals","componentType":5126,"count":24,"min":[-0.8333028554916382,-0.8360151648521423,-0.9971890449523926],"max":[0.8333030939102173,0.8360151648521423,0.9971890449523926],"type":"VEC3","bufferView":0,"byteOffset":3744},{"name":"Bleu.1-Mesh_texcoords","componentType":5126,"count":24,"min":[0,0],"max":[1,1],"type":"VEC2","bufferView":1,"byteOffset":0},{"name":"Bleu.1-Mesh_0_indices","componentType":5123,"count":36,"min":[0],"max":[23],"type":"SCALAR","bufferView":2,"byteOffset":0},{"name":"Bleu-Mesh_positions","componentType":5126,"count":24,"min":[-191.5697479248047,39.953330993652344,-573.0479736328125],"max":[-89.29261016845703,113.27667999267578,-549.6992797851562],"type":"VEC3","bufferView":0,"byteOffset":288},{"name":"Bleu-Mesh_normals","componentType":5126,"count":24,"min":[-0.8522908091545105,-0.852303683757782,-0.9999849200248718],"max":[0.8522908687591553,0.852303683757782,0.9999849200248718],"type":"VEC3","bufferView":0,"byteOffset":4032},{"name":"Bleu-Mesh_texcoords","componentType":5126,"count":24,"min":[0,0],"max":[1,1],"type":"VEC2","bufferView":1,"byteOffset":192},{"name":"Bleu-Mesh_0_indices","componentType":5123,"count":36,"min":[0],"max":[23],"type":"SCALAR","bufferView":2,"byteOffset":72},{"name":"Noir.2-Mesh_positions","componentType":5126,"count":24,"min":[66.78407287597656,33.29381561279297,-519.7529296875],"max":[143.44879150390625,109.8666000366211,-463.69915771484375],"type":"VEC3","bufferView":0,"byteOffset":576},{"name":"Noir.2-Mesh_normals","componentType":5126,"count":24,"min":[-0.8031110763549805,-0.8031231760978699,-0.9999849200248718],"max":[0.8031110167503357,0.8031231760978699,0.9999849200248718],"type":"VEC3","bufferView":0,"byteOffset":4320},{"name":"Noir.2-Mesh_texcoords","componentType":5126,"count":24,"min":[0,0],"max":[1,1],"type":"VEC2","bufferView":1,"byteOffset":384},{"name":"Noir.2-Mesh_0_indices","componentType":5123,"count":36,"min":[0],"max":[23],"type":"SCALAR","bufferView":2,"byteOffset":144},{"name":"Noir.1-Mesh_positions","componentType":5126,"count":24,"min":[-24.0357723236084,40.410606384277344,-538.3642578125],"max":[120.3065414428711,195.24224853515625,-445.714111328125],"type":"VEC3","bufferView":0,"byteOffset":864},{"name":"Noir.1-Mesh_normals","componentType":5126,"count":24,"min":[-0.7961361408233643,-0.7961481213569641,-0.9999849200248718],"max":[0.7961360812187195,0.7961481213569641,0.9999849200248718],"type":"VEC3","bufferView":0,"byteOffset":4608},{"name":"Noir.1-Mesh_texcoords","componentType":5126,"count":24,"min":[0,0],"max":[1,1],"type":"VEC2","bufferView":1,"byteOffset":576},{"name":"Noir.1-Mesh_0_indices","componentType":5123,"count":36,"min":[0],"max":[23],"type":"SCALAR","bufferView":2,"byteOffset":216},{"name":"Noir-Mesh_positions","componentType":5126,"count":24,"min":[-153.4706573486328,84.158447265625,-500.0765075683594],"max":[82.49620056152344,328.6121826171875,-484.9210205078125],"type":"VEC3","bufferView":0,"byteOffset":1152},{"name":"Noir-Mesh_normals","componentType":5126,"count":24,"min":[-0.7764462232589722,-0.7764579057693481,-0.9999849200248718],"max":[0.7764461636543274,0.7764579057693481,0.9999849200248718],"type":"VEC3","bufferView":0,"byteOffset":4896},{"name":"Noir-Mesh_texcoords","componentType":5126,"count":24,"min":[0,0],"max":[1,1],"type":"VEC2","bufferView":1,"byteOffset":768},{"name":"Noir-Mesh_0_indices","componentType":5123,"count":36,"min":[0],"max":[23],"type":"SCALAR","bufferView":2,"byteOffset":288},{"name":"Rouge_dessus-Mesh_positions","componentType":5126,"count":24,"min":[-107.8526840209961,461.0403137207031,-662.5170288085938],"max":[-38.083099365234375,473.1272888183594,-657.47119140625],"type":"VEC3","bufferView":0,"byteOffset":1440},{"name":"Rouge_dessus-Mesh_normals","componentType":5126,"count":24,"min":[-0.9934725165367126,-0.993487536907196,-0.9999849200248718],"max":[0.9934725165367126,0.993487536907196,0.9999849200248718],"type":"VEC3","bufferView":0,"byteOffset":5184},{"name":"Rouge_dessus-Mesh_texcoords","componentType":5126,"count":24,"min":[0,0],"max":[1,1],"type":"VEC2","bufferView":1,"byteOffset":960},{"name":"Rouge_dessus-Mesh_0_indices","componentType":5123,"count":36,"min":[0],"max":[23],"type":"SCALAR","bufferView":2,"byteOffset":360},{"name":"Rouge_dessous-Mesh_positions","componentType":5126,"count":24,"min":[-138.3022003173828,439.2768859863281,-664.6091918945312],"max":[154.94964599609375,462.87677001953125,-654.4855346679688],"type":"VEC3","bufferView":0,"byteOffset":1728},{"name":"Rouge_dessous-Mesh_normals","componentType":5126,"count":24,"min":[-0.9989058375358582,-0.9989209175109863,-0.9999849200248718],"max":[0.9989058971405029,0.9989209175109863,0.9999849200248718],"type":"VEC3","bufferView":0,"byteOffset":5472},{"name":"Rouge_dessous-Mesh_texcoords","componentType":5126,"count":24,"min":[0,0],"max":[1,1],"type":"VEC2","bufferView":1,"byteOffset":1152},{"name":"Rouge_dessous-Mesh_0_indices","componentType":5123,"count":36,"min":[0],"max":[23],"type":"SCALAR","bufferView":2,"byteOffset":432},{"name":"jaune_big-Mesh_positions","componentType":5126,"count":24,"min":[-113.52359771728516,312.06256103515625,-605.3446044921875],"max":[64.62673950195312,509.2232971191406,-507.8475646972656],"type":"VEC3","bufferView":0,"byteOffset":2016},{"name":"jaune_big-Mesh_normals","componentType":5126,"count":24,"min":[-0.7764462232589722,-0.7764579057693481,-0.9999849200248718],"max":[0.7764462232589722,0.7764579057693481,0.9999849200248718],"type":"VEC3","bufferView":0,"byteOffset":5760},{"name":"jaune_big-Mesh_texcoords","componentType":5126,"count":24,"min":[0,0],"max":[1,1],"type":"VEC2","bufferView":1,"byteOffset":1344},{"name":"jaune_big-Mesh_0_indices","componentType":5123,"count":36,"min":[0],"max":[23],"type":"SCALAR","bufferView":2,"byteOffset":504},{"name":"jaune_big.1-Mesh_positions","componentType":5126,"count":24,"min":[-25.28577995300293,333.74200439453125,-582.531982421875],"max":[54.725929260253906,423.9649963378906,-530.2296752929688],"type":"VEC3","bufferView":0,"byteOffset":2304},{"name":"jaune_big.1-Mesh_normals","componentType":5126,"count":24,"min":[-0.7764461636543274,-0.7764579057693481,-0.9999849200248718],"max":[0.7764461636543274,0.7764579057693481,0.9999849200248718],"type":"VEC3","bufferView":0,"byteOffset":6048},{"name":"jaune_big.1-Mesh_texcoords","componentType":5126,"count":24,"min":[0,0],"max":[1,1],"type":"VEC2","bufferView":1,"byteOffset":1536},{"name":"jaune_big.1-Mesh_0_indices","componentType":5123,"count":36,"min":[0],"max":[23],"type":"SCALAR","bufferView":2,"byteOffset":576},{"name":"jaune_big.2-Mesh_positions","componentType":5126,"count":24,"min":[29.679227828979492,334.7137756347656,-581.1402587890625],"max":[98.09785461425781,402.6761474609375,-502.79534912109375],"type":"VEC3","bufferView":0,"byteOffset":2592},{"name":"jaune_big.2-Mesh_normals","componentType":5126,"count":24,"min":[-0.7764461040496826,-0.7764579057693481,-0.9999849200248718],"max":[0.7764461040496826,0.7764579057693481,0.9999849200248718],"type":"VEC3","bufferView":0,"byteOffset":6336},{"name":"jaune_big.2-Mesh_texcoords","componentType":5126,"count":24,"min":[0,0],"max":[1,1],"type":"VEC2","bufferView":1,"byteOffset":1728},{"name":"jaune_big.2-Mesh_0_indices","componentType":5123,"count":36,"min":[0],"max":[23],"type":"SCALAR","bufferView":2,"byteOffset":648},{"name":"jaune_big.3-Mesh_positions","componentType":5126,"count":24,"min":[-156.96397399902344,242.31666564941406,-582.0602416992188],"max":[-66.4583511352539,335.7996826171875,-532.0911254882812],"type":"VEC3","bufferView":0,"byteOffset":2880},{"name":"jaune_big.3-Mesh_normals","componentType":5126,"count":24,"min":[-0.7764462232589722,-0.7764579057693481,-0.9999849200248718],"max":[0.7764461040496826,0.7764579057693481,0.9999849200248718],"type":"VEC3","bufferView":0,"byteOffset":6624},{"name":"jaune_big.3-Mesh_texcoords","componentType":5126,"count":24,"min":[0,0],"max":[1,1],"type":"VEC2","bufferView":1,"byteOffset":1920},{"name":"jaune_big.3-Mesh_0_indices","componentType":5123,"count":36,"min":[0],"max":[23],"type":"SCALAR","bufferView":2,"byteOffset":720},{"name":"jaune_big.4-Mesh_positions","componentType":5126,"count":24,"min":[-174.5637969970703,225.1876678466797,-557.5204467773438],"max":[-132.8892822265625,263.90887451171875,-493.03375244140625],"type":"VEC3","bufferView":0,"byteOffset":3168},{"name":"jaune_big.4-Mesh_normals","componentType":5126,"count":24,"min":[-0.7764458656311035,-0.7764579057693481,-0.9999849200248718],"max":[0.7764458656311035,0.7764579057693481,0.9999849200248718],"type":"VEC3","bufferView":0,"byteOffset":6912},{"name":"jaune_big.4-Mesh_texcoords","componentType":5126,"count":24,"min":[0,0],"max":[1,1],"type":"VEC2","bufferView":1,"byteOffset":2112},{"name":"jaune_big.4-Mesh_0_indices","componentType":5123,"count":36,"min":[0],"max":[23],"type":"SCALAR","bufferView":2,"byteOffset":792},{"name":"jaune_big.5-Mesh_positions","componentType":5126,"count":24,"min":[12.775219917297363,287.9508056640625,-556.3043823242188],"max":[54.792945861816406,327.5267028808594,-527.962158203125],"type":"VEC3","bufferView":0,"byteOffset":3456},{"name":"jaune_big.5-Mesh_normals","componentType":5126,"count":24,"min":[-0.7764461636543274,-0.7764579057693481,-0.9999849200248718],"max":[0.7764461636543274,0.7764579057693481,0.9999849200248718],"type":"VEC3","bufferView":0,"byteOffset":7200},{"name":"jaune_big.5-Mesh_texcoords","componentType":5126,"count":24,"min":[0,0],"max":[1,1],"type":"VEC2","bufferView":1,"byteOffset":2304},{"name":"jaune_big.5-Mesh_0_indices","componentType":5123,"count":36,"min":[0],"max":[23],"type":"SCALAR","bufferView":2,"byteOffset":864}],"asset":{"generator":"obj2gltf","version":"2.0"},"buffers":[{"name":"malevitch_v5","byteLength":10920,"uri":"data:application/octet-stream;base64,"}],"bufferViews":[{"name":"bufferView_0","buffer":0,"byteLength":7488,"byteOffset":0,"byteStride":12,"target":34962},{"name":"bufferView_1","buffer":0,"byteLength":2496,"byteOffset":7488,"byteStride":8,"target":34962},{"name":"bufferView_2","buffer":0,"byteLength":936,"byteOffset":9984,"target":34963}],"materials":[{"name":"RandomColor_1","pbrMetallicRoughness":{"baseColorFactor":[0.12156862765551,0.45882353186607,0.99607843160629,1],"metallicFactor":0,"roughnessFactor":1},"emissiveFactor":[0,0,0],"alphaMode":"OPAQUE","doubleSided":false},{"name":"RandomColor_2","pbrMetallicRoughness":{"baseColorFactor":[0.12156862765551,0.45882353186607,0.99607843160629,1],"metallicFactor":0,"roughnessFactor":1},"emissiveFactor":[0,0,0],"alphaMode":"OPAQUE","doubleSided":false},{"name":"RandomColor_3","pbrMetallicRoughness":{"baseColorFactor":[0,0,0,1],"metallicFactor":0,"roughnessFactor":1},"emissiveFactor":[0,0,0],"alphaMode":"OPAQUE","doubleSided":false},{"name":"RandomColor_4","pbrMetallicRoughness":{"baseColorFactor":[0,0,0,1],"metallicFactor":0,"roughnessFactor":1},"emissiveFactor":[0,0,0],"alphaMode":"OPAQUE","doubleSided":false},{"name":"RandomColor_5","pbrMetallicRoughness":{"baseColorFactor":[0,0,0,1],"metallicFactor":0,"roughnessFactor":1},"emissiveFactor":[0,0,0],"alphaMode":"OPAQUE","doubleSided":false},{"name":"RandomColor_6","pbrMetallicRoughness":{"baseColorFactor":[0.99215686321259,0.28627451062202,0.23137255311012,1],"metallicFactor":0,"roughnessFactor":1},"emissiveFactor":[0,0,0],"alphaMode":"OPAQUE","doubleSided":false},{"name":"RandomColor_7","pbrMetallicRoughness":{"baseColorFactor":[0.99215686321259,0.28627451062202,0.23137255311012,1],"metallicFactor":0,"roughnessFactor":1},"emissiveFactor":[0,0,0],"alphaMode":"OPAQUE","doubleSided":false},{"name":"RandomColor_8","pbrMetallicRoughness":{"baseColorFactor":[1,1,0,1],"metallicFactor":0,"roughnessFactor":1},"emissiveFactor":[0,0,0],"alphaMode":"OPAQUE","doubleSided":false},{"name":"RandomColor_9","pbrMetallicRoughness":{"baseColorFactor":[1,1,0,1],"metallicFactor":0,"roughnessFactor":1},"emissiveFactor":[0,0,0],"alphaMode":"OPAQUE","doubleSided":false},{"name":"RandomColor_10","pbrMetallicRoughness":{"baseColorFactor":[1,1,0,1],"metallicFactor":0,"roughnessFactor":1},"emissiveFactor":[0,0,0],"alphaMode":"OPAQUE","doubleSided":false},{"name":"RandomColor_11","pbrMetallicRoughness":{"baseColorFactor":[1,1,0,1],"metallicFactor":0,"roughnessFactor":1},"emissiveFactor":[0,0,0],"alphaMode":"OPAQUE","doubleSided":false},{"name":"RandomColor_12","pbrMetallicRoughness":{"baseColorFactor":[1,1,0,1],"metallicFactor":0,"roughnessFactor":1},"emissiveFactor":[0,0,0],"alphaMode":"OPAQUE","doubleSided":false},{"name":"RandomColor_13","pbrMetallicRoughness":{"baseColorFactor":[1,1,0,1],"metallicFactor":0,"roughnessFactor":1},"emissiveFactor":[0,0,0],"alphaMode":"OPAQUE","doubleSided":false}],"meshes":[{"name":"Bleu.1-Mesh","primitives":[{"attributes":{"POSITION":0,"NORMAL":1,"TEXCOORD_0":2},"indices":3,"material":0,"mode":4}]},{"name":"Bleu-Mesh","primitives":[{"attributes":{"POSITION":4,"NORMAL":5,"TEXCOORD_0":6},"indices":7,"material":1,"mode":4}]},{"name":"Noir.2-Mesh","primitives":[{"attributes":{"POSITION":8,"NORMAL":9,"TEXCOORD_0":10},"indices":11,"material":2,"mode":4}]},{"name":"Noir.1-Mesh","primitives":[{"attributes":{"POSITION":12,"NORMAL":13,"TEXCOORD_0":14},"indices":15,"material":3,"mode":4}]},{"name":"Noir-Mesh","primitives":[{"attributes":{"POSITION":16,"NORMAL":17,"TEXCOORD_0":18},"indices":19,"material":4,"mode":4}]},{"name":"Rouge_dessus-Mesh","primitives":[{"attributes":{"POSITION":20,"NORMAL":21,"TEXCOORD_0":22},"indices":23,"material":5,"mode":4}]},{"name":"Rouge_dessous-Mesh","primitives":[{"attributes":{"POSITION":24,"NORMAL":25,"TEXCOORD_0":26},"indices":27,"material":6,"mode":4}]},{"name":"jaune_big-Mesh","primitives":[{"attributes":{"POSITION":28,"NORMAL":29,"TEXCOORD_0":30},"indices":31,"material":7,"mode":4}]},{"name":"jaune_big.1-Mesh","primitives":[{"attributes":{"POSITION":32,"NORMAL":33,"TEXCOORD_0":34},"indices":35,"material":8,"mode":4}]},{"name":"jaune_big.2-Mesh","primitives":[{"attributes":{"POSITION":36,"NORMAL":37,"TEXCOORD_0":38},"indices":39,"material":9,"mode":4}]},{"name":"jaune_big.3-Mesh","primitives":[{"attributes":{"POSITION":40,"NORMAL":41,"TEXCOORD_0":42},"indices":43,"material":10,"mode":4}]},{"name":"jaune_big.4-Mesh","primitives":[{"attributes":{"POSITION":44,"NORMAL":45,"TEXCOORD_0":46},"indices":47,"material":11,"mode":4}]},{"name":"jaune_big.5-Mesh","primitives":[{"attributes":{"POSITION":48,"NORMAL":49,"TEXCOORD_0":50},"indices":51,"material":12,"mode":4}]}],"nodes":[{"name":"Bleu.1","mesh":0},{"name":"Bleu","mesh":1},{"name":"Noir.2","mesh":2},{"name":"Noir.1","mesh":3},{"name":"Noir","mesh":4},{"name":"Rouge_dessus","mesh":5},{"name":"Rouge_dessous","mesh":6},{"name":"jaune_big","mesh":7},{"name":"jaune_big.1","mesh":8},{"name":"jaune_big.2","mesh":9},{"name":"jaune_big.3","mesh":10},{"name":"jaune_big.4","mesh":11},{"name":"jaune_big.5","mesh":12}],"scene":0,"scenes":[{"nodes":[0,1,2,3,4,5,6,7,8,9,10,11,12]}]}
