{"accessors":{"accessor_0":{"bufferView":"bufferView_0","byteOffset":0,"byteStride":0,"componentType":5126,"count":24,"min":[94.12300109863281,166.71556091308594,-605.2119750976562],"max":[154.956787109375,212.4139404296875,-587.1791381835938],"type":"VEC3"},"accessor_1":{"bufferView":"bufferView_0","byteOffset":288,"byteStride":0,"componentType":5126,"count":24,"min":[-0.8333028554916382,-0.8360151648521423,-0.9971890449523926],"max":[0.8333030939102173,0.8360151648521423,0.9971890449523926],"type":"VEC3"},"accessor_2":{"bufferView":"bufferView_0","byteOffset":576,"byteStride":0,"componentType":5126,"count":24,"min":[0,0],"max":[1,1],"type":"VEC2"},"accessor_3":{"bufferView":"bufferView_1","byteOffset":0,"byteStride":0,"componentType":5123,"count":36,"min":[0],"max":[23],"type":"SCALAR"},"accessor_4":{"bufferView":"bufferView_0","byteOffset":768,"byteStride":0,"componentType":5126,"count":24,"min":[-191.5697479248047,39.953330993652344,-573.0479736328125],"max":[-89.29261016845703,113.27667999267578,-549.6992797851562],"type":"VEC3"},"accessor_5":{"bufferView":"bufferView_0","byteOffset":1056,"byteStride":0,"componentType":5126,"count":24,"min":[-0.8522908091545105,-0.852303683757782,-0.9999849200248718],"max":[0.8522908687591553,0.852303683757782,0.9999849200248718],"type":"VEC3"},"accessor_6":{"bufferView":"bufferView_0","byteOffset":1344,"byteStride":0,"componentType":5126,"count":24,"min":[0,0],"max":[1,1],"type":"VEC2"},"accessor_7":{"bufferView":"bufferView_1","byteOffset":72,"byteStride":0,"componentType":5123,"count":36,"min":[0],"max":[23],"type":"SCALAR"},"accessor_8":{"bufferView":"bufferView_0","byteOffset":1536,"byteStride":0,"componentType":5126,"count":24,"min":[66.78407287597656,33.29381561279297,-519.7529296875],"max":[143.44879150390625,109.8666000366211,-463.69915771484375],"type":"VEC3"},"accessor_9":{"bufferView":"bufferView_0","byteOffset":1824,"byteStride":0,"componentType":5126,"count":24,"min":[-0.8031110763549805,-0.8031231760978699,-0.9999849200248718],"max":[0.8031110167503357,0.8031231760978699,0.9999849200248718],"type":"VEC3"},"accessor_10":{"bufferView":"bufferView_0","byteOffset":2112,"byteStride":0,"componentType":5126,"count":24,"min":[0,0],"max":[1,1],"type":"VEC2"},"accessor_11":{"bufferView":"bufferView_1","byteOffset":144,"byteStride":0,"componentType":5123,"count":36,"min":[0],"max":[23],"type":"SCALAR"},"accessor_12":{"bufferView":"bufferView_0","byteOffset":2304,"byteStride":0,"componentType":5126,"count":24,"min":[-24.0357723236084,40.410606384277344,-538.3642578125],"max":[120.3065414428711,195.24224853515625,-445.714111328125],"type":"VEC3"},"accessor_13":{"bufferView":"bufferView_0","byteOffset":2592,"byteStride":0,"componentType":5126,"count":24,"min":[-0.7961361408233643,-0.7961481213569641,-0.9999849200248718],"max":[0.7961360812187195,0.7961481213569641,0.9999849200248718],"type":"VEC3"},"accessor_14":{"bufferView":"bufferView_0","byteOffset":2880,"byteStride":0,"componentType":5126,"count":24,"min":[0,0],"max":[1,1],"type":"VEC2"},"accessor_15":{"bufferView":"bufferView_1","byteOffset":216,"byteStride":0,"componentType":5123,"count":36,"min":[0],"max":[23],"type":"SCALAR"},"accessor_16":{"bufferView":"bufferView_0","byteOffset":3072,"byteStride":0,"componentType":5126,"count":24,"min":[-153.4706573486328,84.158447265625,-500.0765075683594],"max":[82.49620056152344,328.6121826171875,-484.9210205078125],"type":"VEC3"},"accessor_17":{"bufferView":"bufferView_0","byteOffset":3360,"byteStride":0,"componentType":5126,"count":24,"min":[-0.7764462232589722,-0.7764579057693481,-0.9999849200248718],"max":[0.7764461636543274,0.7764579057693481,0.9999849200248718],"type":"VEC3"},"accessor_18":{"bufferView":"bufferView_0","byteOffset":3648,"byteStride":0,"componentType":5126,"count":24,"min":[0,0],"max":[1,1],"type":"VEC2"},"accessor_19":{"bufferView":"bufferView_1","byteOffset":288,"byteStride":0,"componentType":5123,"count":36,"min":[0],"max":[23],"type":"SCALAR"},"accessor_20":{"bufferView":"bufferView_0","byteOffset":3840,"byteStride":0,"componentType":5126,"count":24,"min":[-107.8526840209961,461.0403137207031,-662.5170288085938],"max":[-38.083099365234375,473.1272888183594,-657.47119140625],"type":"VEC3"},"accessor_21":{"bufferView":"bufferView_0","byteOffset":4128,"byteStride":0,"componentType":5126,"count":24,"min":[-0.9934725165367126,-0.993487536907196,-0.9999849200248718],"max":[0.9934725165367126,0.993487536907196,0.9999849200248718],"type":"VEC3"},"accessor_22":{"bufferView":"bufferView_0","byteOffset":4416,"byteStride":0,"componentType":5126,"count":24,"min":[0,0],"max":[1,1],"type":"VEC2"},"accessor_23":{"bufferView":"bufferView_1","byteOffset":360,"byteStride":0,"componentType":5123,"count":36,"min":[0],"max":[23],"type":"SCALAR"},"accessor_24":{"bufferView":"bufferView_0","byteOffset":4608,"byteStride":0,"componentType":5126,"count":24,"min":[-138.3022003173828,439.2768859863281,-664.6091918945312],"max":[154.94964599609375,462.87677001953125,-654.4855346679688],"type":"VEC3"},"accessor_25":{"bufferView":"bufferView_0","byteOffset":4896,"byteStride":0,"componentType":5126,"count":24,"min":[-0.9989058375358582,-0.9989209175109863,-0.9999849200248718],"max":[0.9989058971405029,0.9989209175109863,0.9999849200248718],"type":"VEC3"},"accessor_26":{"bufferView":"bufferView_0","byteOffset":5184,"byteStride":0,"componentType":5126,"count":24,"min":[0,0],"max":[1,1],"type":"VEC2"},"accessor_27":{"bufferView":"bufferView_1","byteOffset":432,"byteStride":0,"componentType":5123,"count":36,"min":[0],"max":[23],"type":"SCALAR"},"accessor_28":{"bufferView":"bufferView_0","byteOffset":5376,"byteStride":0,"componentType":5126,"count":24,"min":[-113.52359771728516,312.06256103515625,-605.3446044921875],"max":[64.62673950195312,509.2232971191406,-507.8475646972656],"type":"VEC3"},"accessor_29":{"bufferView":"bufferView_0","byteOffset":5664,"byteStride":0,"componentType":5126,"count":24,"min":[-0.7764462232589722,-0.7764579057693481,-0.9999849200248718],"max":[0.7764462232589722,0.7764579057693481,0.9999849200248718],"type":"VEC3"},"accessor_30":{"bufferView":"bufferView_0","byteOffset":5952,"byteStride":0,"componentType":5126,"count":24,"min":[0,0],"max":[1,1],"type":"VEC2"},"accessor_31":{"bufferView":"bufferView_1","byteOffset":504,"byteStride":0,"componentType":5123,"count":36,"min":[0],"max":[23],"type":"SCALAR"},"accessor_32":{"bufferView":"bufferView_0","byteOffset":6144,"byteStride":0,"componentType":5126,"count":24,"min":[-25.28577995300293,333.74200439453125,-582.531982421875],"max":[54.725929260253906,423.9649963378906,-530.2296752929688],"type":"VEC3"},"accessor_33":{"bufferView":"bufferView_0","byteOffset":6432,"byteStride":0,"componentType":5126,"count":24,"min":[-0.7764461636543274,-0.7764579057693481,-0.9999849200248718],"max":[0.7764461636543274,0.7764579057693481,0.9999849200248718],"type":"VEC3"},"accessor_34":{"bufferView":"bufferView_0","byteOffset":6720,"byteStride":0,"componentType":5126,"count":24,"min":[0,0],"max":[1,1],"type":"VEC2"},"accessor_35":{"bufferView":"bufferView_1","byteOffset":576,"byteStride":0,"componentType":5123,"count":36,"min":[0],"max":[23],"type":"SCALAR"},"accessor_36":{"bufferView":"bufferView_0","byteOffset":6912,"byteStride":0,"componentType":5126,"count":24,"min":[29.679227828979492,334.7137756347656,-581.1402587890625],"max":[98.09785461425781,402.6761474609375,-502.79534912109375],"type":"VEC3"},"accessor_37":{"bufferView":"bufferView_0","byteOffset":7200,"byteStride":0,"componentType":5126,"count":24,"min":[-0.7764461040496826,-0.7764579057693481,-0.9999849200248718],"max":[0.7764461040496826,0.7764579057693481,0.9999849200248718],"type":"VEC3"},"accessor_38":{"bufferView":"bufferView_0","byteOffset":7488,"byteStride":0,"componentType":5126,"count":24,"min":[0,0],"max":[1,1],"type":"VEC2"},"accessor_39":{"bufferView":"bufferView_1","byteOffset":648,"byteStride":0,"componentType":5123,"count":36,"min":[0],"max":[23],"type":"SCALAR"},"accessor_40":{"bufferView":"bufferView_0","byteOffset":7680,"byteStride":0,"componentType":5126,"count":24,"min":[-156.96397399902344,242.31666564941406,-582.0602416992188],"max":[-66.4583511352539,335.7996826171875,-532.0911254882812],"type":"VEC3"},"accessor_41":{"bufferView":"bufferView_0","byteOffset":7968,"byteStride":0,"componentType":5126,"count":24,"min":[-0.7764462232589722,-0.7764579057693481,-0.9999849200248718],"max":[0.7764461040496826,0.7764579057693481,0.9999849200248718],"type":"VEC3"},"accessor_42":{"bufferView":"bufferView_0","byteOffset":8256,"byteStride":0,"componentType":5126,"count":24,"min":[0,0],"max":[1,1],"type":"VEC2"},"accessor_43":{"bufferView":"bufferView_1","byteOffset":720,"byteStride":0,"componentType":5123,"count":36,"min":[0],"max":[23],"type":"SCALAR"},"accessor_44":{"bufferView":"bufferView_0","byteOffset":8448,"byteStride":0,"componentType":5126,"count":24,"min":[-174.5637969970703,225.1876678466797,-557.5204467773438],"max":[-132.8892822265625,263.90887451171875,-493.03375244140625],"type":"VEC3"},"accessor_45":{"bufferView":"bufferView_0","byteOffset":8736,"byteStride":0,"componentType":5126,"count":24,"min":[-0.7764458656311035,-0.7764579057693481,-0.9999849200248718],"max":[0.7764458656311035,0.7764579057693481,0.9999849200248718],"type":"VEC3"},"accessor_46":{"bufferView":"bufferView_0","byteOffset":9024,"byteStride":0,"componentType":5126,"count":24,"min":[0,0],"max":[1,1],"type":"VEC2"},"accessor_47":{"bufferView":"bufferView_1","byteOffset":792,"byteStride":0,"componentType":5123,"count":36,"min":[0],"max":[23],"type":"SCALAR"},"accessor_48":{"bufferView":"bufferView_0","byteOffset":9216,"byteStride":0,"componentType":5126,"count":24,"min":[12.775219917297363,287.9508056640625,-556.3043823242188],"max":[54.792945861816406,327.5267028808594,-527.962158203125],"type":"VEC3"},"accessor_49":{"bufferView":"bufferView_0","byteOffset":9504,"byteStride":0,"componentType":5126,"count":24,"min":[-0.7764461636543274,-0.7764579057693481,-0.9999849200248718],"max":[0.7764461636543274,0.7764579057693481,0.9999849200248718],"type":"VEC3"},"accessor_50":{"bufferView":"bufferView_0","byteOffset":9792,"byteStride":0,"componentType":5126,"count":24,"min":[0,0],"max":[1,1],"type":"VEC2"},"accessor_51":{"bufferView":"bufferView_1","byteOffset":864,"byteStride":0,"componentType":5123,"count":36,"min":[0],"max":[23],"type":"SCALAR"},"accessor_Bleu.1-Mesh_0_AO":{"bufferView":"bufferView_2","byteOffset":0,"componentType":5126,"count":24,"type":"SCALAR","byteStride":0},"accessor_Bleu-Mesh_0_AO":{"bufferView":"bufferView_2","byteOffset":96,"componentType":5126,"count":24,"type":"SCALAR","byteStride":0},"accessor_Noir.2-Mesh_0_AO":{"bufferView":"bufferView_2","byteOffset":192,"componentType":5126,"count":24,"type":"SCALAR","byteStride":0},"accessor_Noir.1-Mesh_0_AO":{"bufferView":"bufferView_2","byteOffset":288,"componentType":5126,"count":24,"type":"SCALAR","byteStride":0},"accessor_Noir-Mesh_0_AO":{"bufferView":"bufferView_2","byteOffset":384,"componentType":5126,"count":24,"type":"SCALAR","byteStride":0},"accessor_Rouge_dessus-Mesh_0_AO":{"bufferView":"bufferView_2","byteOffset":480,"componentType":5126,"count":24,"type":"SCALAR","byteStride":0},"accessor_Rouge_dessous-Mesh_0_AO":{"bufferView":"bufferView_2","byteOffset":576,"componentType":5126,"count":24,"type":"SCALAR","byteStride":0},"accessor_jaune_big-Mesh_0_AO":{"bufferView":"bufferView_2","byteOffset":672,"componentType":5126,"count":24,"type":"SCALAR","byteStride":0},"accessor_jaune_big.1-Mesh_0_AO":{"bufferView":"bufferView_2","byteOffset":768,"componentType":5126,"count":24,"type":"SCALAR","byteStride":0},"accessor_jaune_big.2-Mesh_0_AO":{"bufferView":"bufferView_2","byteOffset":864,"componentType":5126,"count":24,"type":"SCALAR","byteStride":0},"accessor_jaune_big.3-Mesh_0_AO":{"bufferView":"bufferView_2","byteOffset":960,"componentType":5126,"count":24,"type":"SCALAR","byteStride":0},"accessor_jaune_big.4-Mesh_0_AO":{"bufferView":"bufferView_2","byteOffset":1056,"componentType":5126,"count":24,"type":"SCALAR","byteStride":0},"accessor_jaune_big.5-Mesh_0_AO":{"bufferView":"bufferView_2","byteOffset":1152,"componentType":5126,"count":24,"type":"SCALAR","byteStride":0}},"asset":{"generator":"obj2gltf","profile":{"api":"WebGL","version":"1.0"},"version":"1.0","premultipliedAlpha":true},"buffers":{"buffer":{"byteLength":10920,"uri":"data:application/octet-stream;base64,","type":"arraybuffer"},"aoBuffer":{"type":"arraybuffer","byteLength":1248,"uri":"data:application/octet-stream;base64,"}},"bufferViews":{"bufferView_0":{"buffer":"buffer","byteLength":9984,"byteOffset":0,"target":34962},"bufferView_1":{"buffer":"buffer","byteLength":936,"byteOffset":9984,"target":34963},"bufferView_2":{"buffer":"aoBuffer","byteLength":1248,"byteOffset":0,"target":34962}},"extensionsUsed":[],"images":{},"materials":{"RandomColor_1":{"technique":"technique0","values":{"ambient":[0,0,0,1],"diffuse":[0.12156862765551,0.45882353186607,0.99607843160629,1],"emission":[0,0,0,1],"specular":[0,0,0,1],"shininess":0,"transparency":1}},"RandomColor_2":{"technique":"technique0","values":{"ambient":[0,0,0,1],"diffuse":[0.12156862765551,0.45882353186607,0.99607843160629,1],"emission":[0,0,0,1],"specular":[0,0,0,1],"shininess":0,"transparency":1}},"RandomColor_3":{"technique":"technique0","values":{"ambient":[0,0,0,1],"diffuse":[0,0,0,1],"emission":[0,0,0,1],"specular":[0,0,0,1],"shininess":0,"transparency":1}},"RandomColor_4":{"technique":"technique0","values":{"ambient":[0,0,0,1],"diffuse":[0,0,0,1],"emission":[0,0,0,1],"specular":[0,0,0,1],"shininess":0,"transparency":1}},"RandomColor_5":{"technique":"technique0","values":{"ambient":[0,0,0,1],"diffuse":[0,0,0,1],"emission":[0,0,0,1],"specular":[0,0,0,1],"shininess":0,"transparency":1}},"RandomColor_6":{"technique":"technique0","values":{"ambient":[0,0,0,1],"diffuse":[0.99215686321259,0.28627451062202,0.23137255311012,1],"emission":[0,0,0,1],"specular":[0,0,0,1],"shininess":0,"transparency":1}},"RandomColor_7":{"technique":"technique0","values":{"ambient":[0,0,0,1],"diffuse":[0.99215686321259,0.28627451062202,0.23137255311012,1],"emission":[0,0,0,1],"specular":[0,0,0,1],"shininess":0,"transparency":1}},"RandomColor_8":{"technique":"technique0","values":{"ambient":[0,0,0,1],"diffuse":[1,1,0,1],"emission":[0,0,0,1],"specular":[0,0,0,1],"shininess":0,"transparency":1}},"RandomColor_9":{"technique":"technique0","values":{"ambient":[0,0,0,1],"diffuse":[1,1,0,1],"emission":[0,0,0,1],"specular":[0,0,0,1],"shininess":0,"transparency":1}},"RandomColor_10":{"technique":"technique0","values":{"ambient":[0,0,0,1],"diffuse":[1,1,0,1],"emission":[0,0,0,1],"specular":[0,0,0,1],"shininess":0,"transparency":1}},"RandomColor_11":{"technique":"technique0","values":{"ambient":[0,0,0,1],"diffuse":[1,1,0,1],"emission":[0,0,0,1],"specular":[0,0,0,1],"shininess":0,"transparency":1}},"RandomColor_12":{"technique":"technique0","values":{"ambient":[0,0,0,1],"diffuse":[1,1,0,1],"emission":[0,0,0,1],"specular":[0,0,0,1],"shininess":0,"transparency":1}},"RandomColor_13":{"technique":"technique0","values":{"ambient":[0,0,0,1],"diffuse":[1,1,0,1],"emission":[0,0,0,1],"specular":[0,0,0,1],"shininess":0,"transparency":1}}},"meshes":{"Bleu.1-Mesh":{"name":"Bleu.1-Mesh","primitives":[{"attributes":{"POSITION":"accessor_0","NORMAL":"accessor_1","TEXCOORD_0":"accessor_2","_OCCLUSION":"accessor_Bleu.1-Mesh_0_AO"},"indices":"accessor_3","material":"RandomColor_1","mode":4}]},"Bleu-Mesh":{"name":"Bleu-Mesh","primitives":[{"attributes":{"POSITION":"accessor_4","NORMAL":"accessor_5","TEXCOORD_0":"accessor_6","_OCCLUSION":"accessor_Bleu-Mesh_0_AO"},"indices":"accessor_7","material":"RandomColor_2","mode":4}]},"Noir.2-Mesh":{"name":"Noir.2-Mesh","primitives":[{"attributes":{"POSITION":"accessor_8","NORMAL":"accessor_9","TEXCOORD_0":"accessor_10","_OCCLUSION":"accessor_Noir.2-Mesh_0_AO"},"indices":"accessor_11","material":"RandomColor_3","mode":4}]},"Noir.1-Mesh":{"name":"Noir.1-Mesh","primitives":[{"attributes":{"POSITION":"accessor_12","NORMAL":"accessor_13","TEXCOORD_0":"accessor_14","_OCCLUSION":"accessor_Noir.1-Mesh_0_AO"},"indices":"accessor_15","material":"RandomColor_4","mode":4}]},"Noir-Mesh":{"name":"Noir-Mesh","primitives":[{"attributes":{"POSITION":"accessor_16","NORMAL":"accessor_17","TEXCOORD_0":"accessor_18","_OCCLUSION":"accessor_Noir-Mesh_0_AO"},"indices":"accessor_19","material":"RandomColor_5","mode":4}]},"Rouge_dessus-Mesh":{"name":"Rouge_dessus-Mesh","primitives":[{"attributes":{"POSITION":"accessor_20","NORMAL":"accessor_21","TEXCOORD_0":"accessor_22","_OCCLUSION":"accessor_Rouge_dessus-Mesh_0_AO"},"indices":"accessor_23","material":"RandomColor_6","mode":4}]},"Rouge_dessous-Mesh":{"name":"Rouge_dessous-Mesh","primitives":[{"attributes":{"POSITION":"accessor_24","NORMAL":"accessor_25","TEXCOORD_0":"accessor_26","_OCCLUSION":"accessor_Rouge_dessous-Mesh_0_AO"},"indices":"accessor_27","material":"RandomColor_7","mode":4}]},"jaune_big-Mesh":{"name":"jaune_big-Mesh","primitives":[{"attributes":{"POSITION":"accessor_28","NORMAL":"accessor_29","TEXCOORD_0":"accessor_30","_OCCLUSION":"accessor_jaune_big-Mesh_0_AO"},"indices":"accessor_31","material":"RandomColor_8","mode":4}]},"jaune_big.1-Mesh":{"name":"jaune_big.1-Mesh","primitives":[{"attributes":{"POSITION":"accessor_32","NORMAL":"accessor_33","TEXCOORD_0":"accessor_34","_OCCLUSION":"accessor_jaune_big.1-Mesh_0_AO"},"indices":"accessor_35","material":"RandomColor_9","mode":4}]},"jaune_big.2-Mesh":{"name":"jaune_big.2-Mesh","primitives":[{"attributes":{"POSITION":"accessor_36","NORMAL":"accessor_37","TEXCOORD_0":"accessor_38","_OCCLUSION":"accessor_jaune_big.2-Mesh_0_AO"},"indices":"accessor_39","material":"RandomColor_10","mode":4}]},"jaune_big.3-Mesh":{"name":"jaune_big.3-Mesh","primitives":[{"attributes":{"POSITION":"accessor_40","NORMAL":"accessor_41","TEXCOORD_0":"accessor_42","_OCCLUSION":"accessor_jaune_big.3-Mesh_0_AO"},"indices":"accessor_43","material":"RandomColor_11","mode":4}]},"jaune_big.4-Mesh":{"name":"jaune_big.4-Mesh","primitives":[{"attributes":{"POSITION":"accessor_44","NORMAL":"accessor_45","TEXCOORD_0":"accessor_46","_OCCLUSION":"accessor_jaune_big.4-Mesh_0_AO"},"indices":"accessor_47","material":"RandomColor_12","mode":4}]},"jaune_big.5-Mesh":{"name":"jaune_big.5-Mesh","primitives":[{"attributes":{"POSITION":"accessor_48","NORMAL":"accessor_49","TEXCOORD_0":"accessor_50","_OCCLUSION":"accessor_jaune_big.5-Mesh_0_AO"},"indices":"accessor_51","material":"RandomColor_13","mode":4}]}},"nodes":{"Bleu.1":{"name":"Bleu.1","meshes":["Bleu.1-Mesh"],"children":[],"matrix":[1,0,0,0,0,1,0,0,0,0,1,0,0,0,0,1]},"Bleu":{"name":"Bleu","meshes":["Bleu-Mesh"],"children":[],"matrix":[1,0,0,0,0,1,0,0,0,0,1,0,0,0,0,1]},"Noir.2":{"name":"Noir.2","meshes":["Noir.2-Mesh"],"children":[],"matrix":[1,0,0,0,0,1,0,0,0,0,1,0,0,0,0,1]},"Noir.1":{"name":"Noir.1","meshes":["Noir.1-Mesh"],"children":[],"matrix":[1,0,0,0,0,1,0,0,0,0,1,0,0,0,0,1]},"Noir":{"name":"Noir","meshes":["Noir-Mesh"],"children":[],"matrix":[1,0,0,0,0,1,0,0,0,0,1,0,0,0,0,1]},"Rouge_dessus":{"name":"Rouge_dessus","meshes":["Rouge_dessus-Mesh"],"children":[],"matrix":[1,0,0,0,0,1,0,0,0,0,1,0,0,0,0,1]},"Rouge_dessous":{"name":"Rouge_dessous","meshes":["Rouge_dessous-Mesh"],"children":[],"matrix":[1,0,0,0,0,1,0,0,0,0,1,0,0,0,0,1]},"jaune_big":{"name":"jaune_big","meshes":["jaune_big-Mesh"],"children":[],"matrix":[1,0,0,0,0,1,0,0,0,0,1,0,0,0,0,1]},"jaune_big.1":{"name":"jaune_big.1","meshes":["jaune_big.1-Mesh"],"children":[],"matrix":[1,0,0,0,0,1,0,0,0,0,1,0,0,0,0,1]},"jaune_big.2":{"name":"jaune_big.2","meshes":["jaune_big.2-Mesh"],"children":[],"matrix":[1,0,0,0,0,1,0,0,0,0,1,0,0,0,0,1]},"jaune_big.3":{"name":"jaune_big.3","meshes":["jaune_big.3-Mesh"],"children":[],"matrix":[1,0,0,0,0,1,0,0,0,0,1,0,0,0,0,1]},"jaune_big.4":{"name":"jaune_big.4","meshes":["jaune_big.4-Mesh"],"children":[],"matrix":[1,0,0,0,0,1,0,0,0,0,1,0,0,0,0,1]},"jaune_big.5":{"name":"jaune_big.5","meshes":["jaune_big.5-Mesh"],"children":[],"matrix":[1,0,0,0,0,1,0,0,0,0,1,0,0,0,0,1]}},"samplers":{},"scene":"scene","scenes":{"scene":{"nodes":["Bleu.1","Bleu","Noir.2","Noir.1","Noir","Rouge_dessus","Rouge_dessous","jaune_big","jaune_big.1","jaune_big.2","jaune_big.3","jaune_big.4","jaune_big.5"]}},"textures":{},"animations":{},"cameras":{},"programs":{"program0":{"attributes":["a_position","a_normal","a_texcoord_0","a_ambientOcclusion"],"fragmentShader":"fragmentShader0","vertexShader":"vertexShader0"}},"shaders":{"vertexShader0":{"type":35633,"uri":"data:text/plain;base64,"},"fragmentShader0":{"type":35632,"uri":"data:text/plain;base64,"}},"skins":{},"techniques":{"technique0":{"attributes":{"a_position":"position","a_normal":"normal","a_texcoord_0":"texcoord_0","a_ambientOcclusion":"vertex_ao"},"parameters":{"modelViewMatrix":{"semantic":"MODELVIEW","type":35676},"projectionMatrix":{"semantic":"PROJECTION","type":35676},"normalMatrix":{"semantic":"MODELVIEWINVERSETRANSPOSE","type":35675},"ambient":{"type":35666},"diffuse":{"type":35666},"emission":{"type":35666},"specular":{"type":35666},"shininess":{"type":5126},"transparency":{"type":5126},"position":{"semantic":"POSITION","type":35665},"normal":{"semantic":"NORMAL","type":35665},"texcoord_0":{"semantic":"TEXCOORD_0","type":5126},"vertex_ao":{"semantic":"_OCCLUSION","type":5126}},"program":"program0","states":{"enable":[2884,2929]},"uniforms":{"u_modelViewMatrix":"modelViewMatrix","u_projectionMatrix":"projectionMatrix","u_normalMatrix":"normalMatrix","u_ambient":"ambient","u_diffuse":"diffuse","u_emission":"emission","u_specular":"specular","u_shininess":"shininess","u_transparency":"transparency"}}}}
