{"accessors":[{"name":"Bleu.1-Mesh_positions","componentType":5126,"count":24,"min":[94.12300109863281,166.71556091308594,-27.364980697631836],"max":[154.956787109375,212.4139404296875,-9.332154273986816],"type":"VEC3","bufferView":0,"byteOffset":0},{"name":"Bleu.1-Mesh_normals","componentType":5126,"count":24,"min":[-0.8333027958869934,-0.8360151648521423,-0.9971890449523926],"max":[0.8333030343055725,0.8360151648521423,0.9971890449523926],"type":"VEC3","bufferView":0,"byteOffset":3744},{"name":"Bleu.1-Mesh_texcoords","componentType":5126,"count":24,"min":[0,0],"max":[1,1],"type":"VEC2","bufferView":1,"byteOffset":0},{"name":"Bleu.1-Mesh_0_indices","componentType":5123,"count":36,"min":[0],"max":[23],"type":"SCALAR","bufferView":2,"byteOffset":0},{"name":"Bleu-Mesh_positions","componentType":5126,"count":24,"min":[-191.5697479248047,39.953330993652344,4.798980712890625],"max":[-89.29261016845703,113.27667999267578,28.147705078125],"type":"VEC3","bufferView":0,"byteOffset":288},{"name":"Bleu-Mesh_normals","componentType":5126,"count":24,"min":[-0.8522908091545105,-0.852303683757782,-0.9999849200248718],"max":[0.8522908687591553,0.852303683757782,0.9999849200248718],"type":"VEC3","bufferView":0,"byteOffset":4032},{"name":"Bleu-Mesh_texcoords","componentType":5126,"count":24,"min":[0,0],"max":[1,1],"type":"VEC2","bufferView":1,"byteOffset":192},{"name":"Bleu-Mesh_0_indices","componentType":5123,"count":36,"min":[0],"max":[23],"type":"SCALAR","bufferView":2,"byteOffset":72},{"name":"Noir.2-Mesh_positions","componentType":5126,"count":24,"min":[66.78407287597656,33.29381561279297,58.09403610229492],"max":[143.44879150390625,109.8666000366211,114.14783477783203],"type":"VEC3","bufferView":0,"byteOffset":576},{"name":"Noir.2-Mesh_normals","componentType":5126,"count":24,"min":[-0.8031110763549805,-0.8031231760978699,-0.9999849200248718],"max":[0.8031110763549805,0.8031231760978699,0.9999849200248718],"type":"VEC3","bufferView":0,"byteOffset":4320},{"name":"Noir.2-Mesh_texcoords","componentType":5126,"count":24,"min":[0,0],"max":[1,1],"type":"VEC2","bufferView":1,"byteOffset":384},{"name":"Noir.2-Mesh_0_indices","componentType":5123,"count":36,"min":[0],"max":[23],"type":"SCALAR","bufferView":2,"byteOffset":144},{"name":"Noir.1-Mesh_positions","componentType":5126,"count":24,"min":[-24.0357723236084,40.410606384277344,39.482696533203125],"max":[120.3065414428711,195.24224853515625,132.1328582763672],"type":"VEC3","bufferView":0,"byteOffset":864},{"name":"Noir.1-Mesh_normals","componentType":5126,"count":24,"min":[-0.7961361408233643,-0.7961481213569641,-0.9999849200248718],"max":[0.7961360812187195,0.7961481213569641,0.9999849200248718],"type":"VEC3","bufferView":0,"byteOffset":4608},{"name":"Noir.1-Mesh_texcoords","componentType":5126,"count":24,"min":[0,0],"max":[1,1],"type":"VEC2","bufferView":1,"byteOffset":576},{"name":"Noir.1-Mesh_0_indices","componentType":5123,"count":36,"min":[0],"max":[23],"type":"SCALAR","bufferView":2,"byteOffset":216},{"name":"Noir-Mesh_positions","componentType":5126,"count":24,"min":[-153.4706573486328,84.158447265625,77.77046203613281],"max":[82.49620056152344,328.6121826171875,92.92595672607422],"type":"VEC3","bufferView":0,"byteOffset":1152},{"name":"Noir-Mesh_normals","componentType":5126,"count":24,"min":[-0.7764462232589722,-0.7764579057693481,-0.9999849200248718],"max":[0.7764461636543274,0.7764579057693481,0.9999849200248718],"type":"VEC3","bufferView":0,"byteOffset":4896},{"name":"Noir-Mesh_texcoords","componentType":5126,"count":24,"min":[0,0],"max":[1,1],"type":"VEC2","bufferView":1,"byteOffset":768},{"name":"Noir-Mesh_0_indices","componentType":5123,"count":36,"min":[0],"max":[23],"type":"SCALAR","bufferView":2,"byteOffset":288},{"name":"Rouge_dessus-Mesh_positions","componentType":5126,"count":24,"min":[-107.8526840209961,461.0403137207031,-255.19749450683594],"max":[-38.083099365234375,473.1272888183594,-250.15167236328125],"type":"VEC3","bufferView":0,"byteOffset":1440},{"name":"Rouge_dessus-Mesh_normals","componentType":5126,"count":24,"min":[-0.9934725165367126,-0.993487536907196,-0.9999849200248718],"max":[0.9934725165367126,0.993487536907196,0.9999849200248718],"type":"VEC3","bufferView":0,"byteOffset":5184},{"name":"Rouge_dessus-Mesh_texcoords","componentType":5126,"count":24,"min":[0,0],"max":[1,1],"type":"VEC2","bufferView":1,"byteOffset":960},{"name":"Rouge_dessus-Mesh_0_indices","componentType":5123,"count":36,"min":[0],"max":[23],"type":"SCALAR","bufferView":2,"byteOffset":360},{"name":"Rouge_dessous-Mesh_positions","componentType":5126,"count":24,"min":[-138.3022003173828,439.2768859863281,-257.2896728515625],"max":[154.94964599609375,462.87677001953125,-247.16598510742188],"type":"VEC3","bufferView":0,"byteOffset":1728},{"name":"Rouge_dessous-Mesh_normals","componentType":5126,"count":24,"min":[-0.9989058375358582,-0.9989209175109863,-0.9999849200248718],"max":[0.9989058971405029,0.9989209175109863,0.9999849200248718],"type":"VEC3","bufferView":0,"byteOffset":5472},{"name":"Rouge_dessous-Mesh_texcoords","componentType":5126,"count":24,"min":[0,0],"max":[1,1],"type":"VEC2","bufferView":1,"byteOffset":1152},{"name":"Rouge_dessous-Mesh_0_indices","componentType":5123,"count":36,"min":[0],"max":[23],"type":"SCALAR","bufferView":2,"byteOffset":432},{"name":"jaune_big-Mesh_positions","componentType":5126,"count":24,"min":[-113.52359771728516,312.06256103515625,-198.0251007080078],"max":[64.62673950195312,509.2232971191406,-100.52804565429688],"type":"VEC3","bufferView":0,"byteOffset":2016},{"name":"jaune_big-Mesh_normals","componentType":5126,"count":24,"min":[-0.7764462232589722,-0.7764579057693481,-0.9999849200248718],"max":[0.7764462232589722,0.7764579057693481,0.9999849200248718],"type":"VEC3","bufferView":0,"byteOffset":5760},{"name":"jaune_big-Mesh_texcoords","componentType":5126,"count":24,"min":[0,0],"max":[1,1],"type":"VEC2","bufferView":1,"byteOffset":1344},{"name":"jaune_big-Mesh_0_indices","componentType":5123,"count":36,"min":[0],"max":[23],"type":"SCALAR","bufferView":2,"byteOffset":504},{"name":"jaune_big.1-Mesh_positions","componentType":5126,"count":24,"min":[-25.28577995300293,333.74200439453125,-175.2124786376953],"max":[54.725929260253906,423.9649963378906,-122.91015625],"type":"VEC3","bufferView":0,"byteOffset":2304},{"name":"jaune_big.1-Mesh_normals","componentType":5126,"count":24,"min":[-0.7764461040496826,-0.7764579057693481,-0.9999849200248718],"max":[0.7764461636543274,0.7764579057693481,0.9999849200248718],"type":"VEC3","bufferView":0,"byteOffset":6048},{"name":"jaune_big.1-Mesh_texcoords","componentType":5126,"count":24,"min":[0,0],"max":[1,1],"type":"VEC2","bufferView":1,"byteOffset":1536},{"name":"jaune_big.1-Mesh_0_indices","componentType":5123,"count":36,"min":[0],"max":[23],"type":"SCALAR","bufferView":2,"byteOffset":576},{"name":"jaune_big.2-Mesh_positions","componentType":5126,"count":24,"min":[29.679227828979492,334.7137756347656,-173.8207244873047],"max":[98.09785461425781,402.6761474609375,-95.47583770751953],"type":"VEC3","bufferView":0,"byteOffset":2592},{"name":"jaune_big.2-Mesh_normals","componentType":5126,"count":24,"min":[-0.7764461636543274,-0.7764579057693481,-0.9999849200248718],"max":[0.7764461040496826,0.7764579057693481,0.9999849200248718],"type":"VEC3","bufferView":0,"byteOffset":6336},{"name":"jaune_big.2-Mesh_texcoords","componentType":5126,"count":24,"min":[0,0],"max":[1,1],"type":"VEC2","bufferView":1,"byteOffset":1728},{"name":"jaune_big.2-Mesh_0_indices","componentType":5123,"count":36,"min":[0],"max":[23],"type":"SCALAR","bufferView":2,"byteOffset":648},{"name":"jaune_big.3-Mesh_positions","componentType":5126,"count":24,"min":[-156.96397399902344,242.31666564941406,-174.74072265625],"max":[-66.4583511352539,335.7996826171875,-124.77157592773438],"type":"VEC3","bufferView":0,"byteOffset":2880},{"name":"jaune_big.3-Mesh_normals","componentType":5126,"count":24,"min":[-0.7764461636543274,-0.7764579057693481,-0.9999849200248718],"max":[0.7764461040496826,0.7764579057693481,0.9999849200248718],"type":"VEC3","bufferView":0,"byteOffset":6624},{"name":"jaune_big.3-Mesh_texcoords","componentType":5126,"count":24,"min":[0,0],"max":[1,1],"type":"VEC2","bufferView":1,"byteOffset":1920},{"name":"jaune_big.3-Mesh_0_indices","componentType":5123,"count":36,"min":[0],"max":[23],"type":"SCALAR","bufferView":2,"byteOffset":720},{"name":"jaune_big.4-Mesh_positions","componentType":5126,"count":24,"min":[-174.5637969970703,225.1876678466797,-150.20094299316406],"max":[-132.8892822265625,263.90887451171875,-85.71421813964844],"type":"VEC3","bufferView":0,"byteOffset":3168},{"name":"jaune_big.4-Mesh_normals","componentType":5126,"count":24,"min":[-0.7764458656311035,-0.7764579057693481,-0.9999849200248718],"max":[0.7764458060264587,0.7764579057693481,0.9999849200248718],"type":"VEC3","bufferView":0,"byteOffset":6912},{"name":"jaune_big.4-Mesh_texcoords","componentType":5126,"count":24,"min":[0,0],"max":[1,1],"type":"VEC2","bufferView":1,"byteOffset":2112},{"name":"jaune_big.4-Mesh_0_indices","componentType":5123,"count":36,"min":[0],"max":[23],"type":"SCALAR","bufferView":2,"byteOffset":792},{"name":"jaune_big.5-Mesh_positions","componentType":5126,"count":24,"min":[12.775219917297363,287.9508056640625,-148.98483276367188],"max":[54.792945861816406,327.5267028808594,-120.64261627197266],"type":"VEC3","bufferView":0,"byteOffset":3456},{"name":"jaune_big.5-Mesh_normals","componentType":5126,"count":24,"min":[-0.7764461636543274,-0.7764579057693481,-0.9999849200248718],"max":[0.7764461636543274,0.7764579057693481,0.9999849200248718],"type":"VEC3","bufferView":0,"byteOffset":7200},{"name":"jaune_big.5-Mesh_texcoords","componentType":5126,"count":24,"min":[0,0],"max":[1,1],"type":"VEC2","bufferView":1,"byteOffset":2304},{"name":"jaune_big.5-Mesh_0_indices","componentType":5123,"count":36,"min":[0],"max":[23],"type":"SCALAR","bufferView":2,"byteOffset":864}],"asset":{"generator":"obj2gltf","version":"2.0"},"buffers":[{"name":"malevitch_v6","byteLength":10920,"uri":"data:application/octet-stream;base64,"}],"bufferViews":[{"name":"bufferView_0","buffer":0,"byteLength":7488,"byteOffset":0,"byteStride":12,"target":34962},{"name":"bufferView_1","buffer":0,"byteLength":2496,"byteOffset":7488,"byteStride":8,"target":34962},{"name":"bufferView_2","buffer":0,"byteLength":936,"byteOffset":9984,"target":34963}],"materials":[{"name":"default","pbrMetallicRoughness":{"baseColorFactor":[0.5,0.5,0.5,1],"metallicFactor":0,"roughnessFactor":1},"emissiveFactor":[0,0,0],"alphaMode":"OPAQUE","doubleSided":false}],"meshes":[{"name":"Bleu.1-Mesh","primitives":[{"attributes":{"POSITION":0,"NORMAL":1,"TEXCOORD_0":2},"indices":3,"material":0,"mode":4}]},{"name":"Bleu-Mesh","primitives":[{"attributes":{"POSITION":4,"NORMAL":5,"TEXCOORD_0":6},"indices":7,"material":0,"mode":4}]},{"name":"Noir.2-Mesh","primitives":[{"attributes":{"POSITION":8,"NORMAL":9,"TEXCOORD_0":10},"indices":11,"material":0,"mode":4}]},{"name":"Noir.1-Mesh","primitives":[{"attributes":{"POSITION":12,"NORMAL":13,"TEXCOORD_0":14},"indices":15,"material":0,"mode":4}]},{"name":"Noir-Mesh","primitives":[{"attributes":{"POSITION":16,"NORMAL":17,"TEXCOORD_0":18},"indices":19,"material":0,"mode":4}]},{"name":"Rouge_dessus-Mesh","primitives":[{"attributes":{"POSITION":20,"NORMAL":21,"TEXCOORD_0":22},"indices":23,"material":0,"mode":4}]},{"name":"Rouge_dessous-Mesh","primitives":[{"attributes":{"POSITION":24,"NORMAL":25,"TEXCOORD_0":26},"indices":27,"material":0,"mode":4}]},{"name":"jaune_big-Mesh","primitives":[{"attributes":{"POSITION":28,"NORMAL":29,"TEXCOORD_0":30},"indices":31,"material":0,"mode":4}]},{"name":"jaune_big.1-Mesh","primitives":[{"attributes":{"POSITION":32,"NORMAL":33,"TEXCOORD_0":34},"indices":35,"material":0,"mode":4}]},{"name":"jaune_big.2-Mesh","primitives":[{"attributes":{"POSITION":36,"NORMAL":37,"TEXCOORD_0":38},"indices":39,"material":0,"mode":4}]},{"name":"jaune_big.3-Mesh","primitives":[{"attributes":{"POSITION":40,"NORMAL":41,"TEXCOORD_0":42},"indices":43,"material":0,"mode":4}]},{"name":"jaune_big.4-Mesh","primitives":[{"attributes":{"POSITION":44,"NORMAL":45,"TEXCOORD_0":46},"indices":47,"material":0,"mode":4}]},{"name":"jaune_big.5-Mesh","primitives":[{"attributes":{"POSITION":48,"NORMAL":49,"TEXCOORD_0":50},"indices":51,"material":0,"mode":4}]}],"nodes":[{"name":"Bleu.1","mesh":0},{"name":"Bleu","mesh":1},{"name":"Noir.2","mesh":2},{"name":"Noir.1","mesh":3},{"name":"Noir","mesh":4},{"name":"Rouge_dessus","mesh":5},{"name":"Rouge_dessous","mesh":6},{"name":"jaune_big","mesh":7},{"name":"jaune_big.1","mesh":8},{"name":"jaune_big.2","mesh":9},{"name":"jaune_big.3","mesh":10},{"name":"jaune_big.4","mesh":11},{"name":"jaune_big.5","mesh":12}],"scene":0,"scenes":[{"nodes":[0,1,2,3,4,5,6,7,8,9,10,11,12]}]}
