{"accessors":[{"name":"Bleu.1-Mesh_positions","componentType":5126,"count":24,"min":[470.614990234375,833.5777587890625,-136.8249053955078],"max":[774.783935546875,1062.0697021484375,-46.66077423095703],"type":"VEC3","bufferView":0,"byteOffset":0},{"name":"Bleu.1-Mesh_normals","componentType":5126,"count":24,"min":[-0.8333027958869934,-0.8360151648521423,-0.9971890449523926],"max":[0.8333030343055725,0.8360151648521423,0.9971890449523926],"type":"VEC3","bufferView":0,"byteOffset":3744},{"name":"Bleu.1-Mesh_texcoords","componentType":5126,"count":24,"min":[0,0],"max":[1,1],"type":"VEC2","bufferView":1,"byteOffset":0},{"name":"Bleu.1-Mesh_0_indices","componentType":5123,"count":36,"min":[0],"max":[23],"type":"SCALAR","bufferView":2,"byteOffset":0},{"name":"Bleu-Mesh_positions","componentType":5126,"count":24,"min":[-957.8486938476562,199.76666259765625,23.994901657104492],"max":[-446.4630432128906,566.3834228515625,140.738525390625],"type":"VEC3","bufferView":0,"byteOffset":288},{"name":"Bleu-Mesh_normals","componentType":5126,"count":24,"min":[-0.8522908091545105,-0.852303683757782,-0.9999849200248718],"max":[0.8522908687591553,0.852303683757782,0.9999849200248718],"type":"VEC3","bufferView":0,"byteOffset":4032},{"name":"Bleu-Mesh_texcoords","componentType":5126,"count":24,"min":[0,0],"max":[1,1],"type":"VEC2","bufferView":1,"byteOffset":192},{"name":"Bleu-Mesh_0_indices","componentType":5123,"count":36,"min":[0],"max":[23],"type":"SCALAR","bufferView":2,"byteOffset":72},{"name":"Noir.2-Mesh_positions","componentType":5126,"count":24,"min":[333.9203796386719,166.46908569335938,290.4701843261719],"max":[717.2440185546875,549.3330078125,570.7391967773438],"type":"VEC3","bufferView":0,"byteOffset":576},{"name":"Noir.2-Mesh_normals","componentType":5126,"count":24,"min":[-0.8031110763549805,-0.8031231760978699,-0.9999849200248718],"max":[0.8031110763549805,0.8031231760978699,0.9999849200248718],"type":"VEC3","bufferView":0,"byteOffset":4320},{"name":"Noir.2-Mesh_texcoords","componentType":5126,"count":24,"min":[0,0],"max":[1,1],"type":"VEC2","bufferView":1,"byteOffset":384},{"name":"Noir.2-Mesh_0_indices","componentType":5123,"count":36,"min":[0],"max":[23],"type":"SCALAR","bufferView":2,"byteOffset":144},{"name":"Noir.1-Mesh_positions","componentType":5126,"count":24,"min":[-120.1788558959961,202.0530242919922,197.41348266601562],"max":[601.53271484375,976.2112426757812,660.664306640625],"type":"VEC3","bufferView":0,"byteOffset":864},{"name":"Noir.1-Mesh_normals","componentType":5126,"count":24,"min":[-0.7961361408233643,-0.7961481213569641,-0.9999849200248718],"max":[0.7961360812187195,0.7961481213569641,0.9999849200248718],"type":"VEC3","bufferView":0,"byteOffset":4608},{"name":"Noir.1-Mesh_texcoords","componentType":5126,"count":24,"min":[0,0],"max":[1,1],"type":"VEC2","bufferView":1,"byteOffset":576},{"name":"Noir.1-Mesh_0_indices","componentType":5123,"count":36,"min":[0],"max":[23],"type":"SCALAR","bufferView":2,"byteOffset":216},{"name":"Noir-Mesh_positions","componentType":5126,"count":24,"min":[-767.353271484375,420.792236328125,388.852294921875],"max":[412.48101806640625,1643.0609130859375,464.6297912597656],"type":"VEC3","bufferView":0,"byteOffset":1152},{"name":"Noir-Mesh_normals","componentType":5126,"count":24,"min":[-0.7764462232589722,-0.7764579057693481,-0.9999849200248718],"max":[0.7764461636543274,0.7764579057693481,0.9999849200248718],"type":"VEC3","bufferView":0,"byteOffset":4896},{"name":"Noir-Mesh_texcoords","componentType":5126,"count":24,"min":[0,0],"max":[1,1],"type":"VEC2","bufferView":1,"byteOffset":768},{"name":"Noir-Mesh_0_indices","componentType":5123,"count":36,"min":[0],"max":[23],"type":"SCALAR","bufferView":2,"byteOffset":288},{"name":"Rouge_dessus-Mesh_positions","componentType":5126,"count":24,"min":[-539.263427734375,2305.20166015625,-1275.9874267578125],"max":[-190.41549682617188,2365.636474609375,-1250.7584228515625],"type":"VEC3","bufferView":0,"byteOffset":1440},{"name":"Rouge_dessus-Mesh_normals","componentType":5126,"count":24,"min":[-0.9934725165367126,-0.993487536907196,-0.9999849200248718],"max":[0.9934725165367126,0.993487536907196,0.9999849200248718],"type":"VEC3","bufferView":0,"byteOffset":5184},{"name":"Rouge_dessus-Mesh_texcoords","componentType":5126,"count":24,"min":[0,0],"max":[1,1],"type":"VEC2","bufferView":1,"byteOffset":960},{"name":"Rouge_dessus-Mesh_0_indices","componentType":5123,"count":36,"min":[0],"max":[23],"type":"SCALAR","bufferView":2,"byteOffset":360},{"name":"Rouge_dessous-Mesh_positions","componentType":5126,"count":24,"min":[-691.510986328125,2196.384521484375,-1286.4483642578125],"max":[774.7482299804688,2314.3837890625,-1235.8299560546875],"type":"VEC3","bufferView":0,"byteOffset":1728},{"name":"Rouge_dessous-Mesh_normals","componentType":5126,"count":24,"min":[-0.9989058375358582,-0.9989209175109863,-0.9999849200248718],"max":[0.9989058971405029,0.9989209175109863,0.9999849200248718],"type":"VEC3","bufferView":0,"byteOffset":5472},{"name":"Rouge_dessous-Mesh_texcoords","componentType":5126,"count":24,"min":[0,0],"max":[1,1],"type":"VEC2","bufferView":1,"byteOffset":1152},{"name":"Rouge_dessous-Mesh_0_indices","componentType":5123,"count":36,"min":[0],"max":[23],"type":"SCALAR","bufferView":2,"byteOffset":432},{"name":"jaune_big-Mesh_positions","componentType":5126,"count":24,"min":[-567.6179809570312,1560.3128662109375,-990.12548828125],"max":[323.1336975097656,2546.116455078125,-502.6402282714844],"type":"VEC3","bufferView":0,"byteOffset":2016},{"name":"jaune_big-Mesh_normals","componentType":5126,"count":24,"min":[-0.7764462232589722,-0.7764579057693481,-0.9999849200248718],"max":[0.7764462232589722,0.7764579057693481,0.9999849200248718],"type":"VEC3","bufferView":0,"byteOffset":5760},{"name":"jaune_big-Mesh_texcoords","componentType":5126,"count":24,"min":[0,0],"max":[1,1],"type":"VEC2","bufferView":1,"byteOffset":1344},{"name":"jaune_big-Mesh_0_indices","componentType":5123,"count":36,"min":[0],"max":[23],"type":"SCALAR","bufferView":2,"byteOffset":504},{"name":"jaune_big.1-Mesh_positions","componentType":5126,"count":24,"min":[-126.42890167236328,1668.7100830078125,-876.0623779296875],"max":[273.6296691894531,2119.824951171875,-614.55078125],"type":"VEC3","bufferView":0,"byteOffset":2304},{"name":"jaune_big.1-Mesh_normals","componentType":5126,"count":24,"min":[-0.7764461040496826,-0.7764579057693481,-0.9999849200248718],"max":[0.7764461636543274,0.7764579057693481,0.9999849200248718],"type":"VEC3","bufferView":0,"byteOffset":6048},{"name":"jaune_big.1-Mesh_texcoords","componentType":5126,"count":24,"min":[0,0],"max":[1,1],"type":"VEC2","bufferView":1,"byteOffset":1536},{"name":"jaune_big.1-Mesh_0_indices","componentType":5123,"count":36,"min":[0],"max":[23],"type":"SCALAR","bufferView":2,"byteOffset":576},{"name":"jaune_big.2-Mesh_positions","componentType":5126,"count":24,"min":[148.39613342285156,1673.56884765625,-869.1036376953125],"max":[490.4892578125,2013.3807373046875,-477.3791809082031],"type":"VEC3","bufferView":0,"byteOffset":2592},{"name":"jaune_big.2-Mesh_normals","componentType":5126,"count":24,"min":[-0.7764461636543274,-0.7764579057693481,-0.9999849200248718],"max":[0.7764461040496826,0.7764579057693481,0.9999849200248718],"type":"VEC3","bufferView":0,"byteOffset":6336},{"name":"jaune_big.2-Mesh_texcoords","componentType":5126,"count":24,"min":[0,0],"max":[1,1],"type":"VEC2","bufferView":1,"byteOffset":1728},{"name":"jaune_big.2-Mesh_0_indices","componentType":5123,"count":36,"min":[0],"max":[23],"type":"SCALAR","bufferView":2,"byteOffset":648},{"name":"jaune_big.3-Mesh_positions","componentType":5126,"count":24,"min":[-784.8198852539062,1211.583251953125,-873.7036743164062],"max":[-332.291748046875,1678.9984130859375,-623.8578491210938],"type":"VEC3","bufferView":0,"byteOffset":2880},{"name":"jaune_big.3-Mesh_normals","componentType":5126,"count":24,"min":[-0.7764461636543274,-0.7764579057693481,-0.9999849200248718],"max":[0.7764461040496826,0.7764579057693481,0.9999849200248718],"type":"VEC3","bufferView":0,"byteOffset":6624},{"name":"jaune_big.3-Mesh_texcoords","componentType":5126,"count":24,"min":[0,0],"max":[1,1],"type":"VEC2","bufferView":1,"byteOffset":1920},{"name":"jaune_big.3-Mesh_0_indices","componentType":5123,"count":36,"min":[0],"max":[23],"type":"SCALAR","bufferView":2,"byteOffset":720},{"name":"jaune_big.4-Mesh_positions","componentType":5126,"count":24,"min":[-872.8189697265625,1125.9383544921875,-751.0046997070312],"max":[-664.4464721679688,1319.54443359375,-428.5710754394531],"type":"VEC3","bufferView":0,"byteOffset":3168},{"name":"jaune_big.4-Mesh_normals","componentType":5126,"count":24,"min":[-0.7764458656311035,-0.7764579057693481,-0.9999849200248718],"max":[0.7764458060264587,0.7764579057693481,0.9999849200248718],"type":"VEC3","bufferView":0,"byteOffset":6912},{"name":"jaune_big.4-Mesh_texcoords","componentType":5126,"count":24,"min":[0,0],"max":[1,1],"type":"VEC2","bufferView":1,"byteOffset":2112},{"name":"jaune_big.4-Mesh_0_indices","componentType":5123,"count":36,"min":[0],"max":[23],"type":"SCALAR","bufferView":2,"byteOffset":792},{"name":"jaune_big.5-Mesh_positions","componentType":5126,"count":24,"min":[63.8760986328125,1439.75390625,-744.9241943359375],"max":[273.9647521972656,1637.6334228515625,-603.2130737304688],"type":"VEC3","bufferView":0,"byteOffset":3456},{"name":"jaune_big.5-Mesh_normals","componentType":5126,"count":24,"min":[-0.7764461636543274,-0.7764579057693481,-0.9999849200248718],"max":[0.7764461636543274,0.7764579057693481,0.9999849200248718],"type":"VEC3","bufferView":0,"byteOffset":7200},{"name":"jaune_big.5-Mesh_texcoords","componentType":5126,"count":24,"min":[0,0],"max":[1,1],"type":"VEC2","bufferView":1,"byteOffset":2304},{"name":"jaune_big.5-Mesh_0_indices","componentType":5123,"count":36,"min":[0],"max":[23],"type":"SCALAR","bufferView":2,"byteOffset":864}],"asset":{"generator":"obj2gltf","version":"2.0"},"buffers":[{"name":"malevitch_v9","byteLength":10920,"uri":"data:application/octet-stream;base64,"}],"bufferViews":[{"name":"bufferView_0","buffer":0,"byteLength":7488,"byteOffset":0,"byteStride":12,"target":34962},{"name":"bufferView_1","buffer":0,"byteLength":2496,"byteOffset":7488,"byteStride":8,"target":34962},{"name":"bufferView_2","buffer":0,"byteLength":936,"byteOffset":9984,"target":34963}],"materials":[{"name":"RandomColor_1","pbrMetallicRoughness":{"baseColorFactor":[0.12156862765551,0.45882353186607,0.99607843160629,1],"metallicFactor":0,"roughnessFactor":1},"emissiveFactor":[0,0,0],"alphaMode":"OPAQUE","doubleSided":false},{"name":"RandomColor_2","pbrMetallicRoughness":{"baseColorFactor":[0.12156862765551,0.45882353186607,0.99607843160629,1],"metallicFactor":0,"roughnessFactor":1},"emissiveFactor":[0,0,0],"alphaMode":"OPAQUE","doubleSided":false},{"name":"RandomColor_3","pbrMetallicRoughness":{"baseColorFactor":[0,0,0,1],"metallicFactor":0,"roughnessFactor":1},"emissiveFactor":[0,0,0],"alphaMode":"OPAQUE","doubleSided":false},{"name":"RandomColor_4","pbrMetallicRoughness":{"baseColorFactor":[0,0,0,1],"metallicFactor":0,"roughnessFactor":1},"emissiveFactor":[0,0,0],"alphaMode":"OPAQUE","doubleSided":false},{"name":"RandomColor_5","pbrMetallicRoughness":{"baseColorFactor":[0,0,0,1],"metallicFactor":0,"roughnessFactor":1},"emissiveFactor":[0,0,0],"alphaMode":"OPAQUE","doubleSided":false},{"name":"RandomColor_6","pbrMetallicRoughness":{"baseColorFactor":[0.99215686321259,0.28627451062202,0.23137255311012,1],"metallicFactor":0,"roughnessFactor":1},"emissiveFactor":[0,0,0],"alphaMode":"OPAQUE","doubleSided":false},{"name":"RandomColor_7","pbrMetallicRoughness":{"baseColorFactor":[0.99215686321259,0.28627451062202,0.23137255311012,1],"metallicFactor":0,"roughnessFactor":1},"emissiveFactor":[0,0,0],"alphaMode":"OPAQUE","doubleSided":false},{"name":"RandomColor_8","pbrMetallicRoughness":{"baseColorFactor":[1,1,0,1],"metallicFactor":0,"roughnessFactor":1},"emissiveFactor":[0,0,0],"alphaMode":"OPAQUE","doubleSided":false},{"name":"RandomColor_9","pbrMetallicRoughness":{"baseColorFactor":[1,1,0,1],"metallicFactor":0,"roughnessFactor":1},"emissiveFactor":[0,0,0],"alphaMode":"OPAQUE","doubleSided":false},{"name":"RandomColor_10","pbrMetallicRoughness":{"baseColorFactor":[1,1,0,1],"metallicFactor":0,"roughnessFactor":1},"emissiveFactor":[0,0,0],"alphaMode":"OPAQUE","doubleSided":false},{"name":"RandomColor_11","pbrMetallicRoughness":{"baseColorFactor":[1,1,0,1],"metallicFactor":0,"roughnessFactor":1},"emissiveFactor":[0,0,0],"alphaMode":"OPAQUE","doubleSided":false},{"name":"RandomColor_12","pbrMetallicRoughness":{"baseColorFactor":[1,1,0,1],"metallicFactor":0,"roughnessFactor":1},"emissiveFactor":[0,0,0],"alphaMode":"OPAQUE","doubleSided":false},{"name":"RandomColor_13","pbrMetallicRoughness":{"baseColorFactor":[1,1,0,1],"metallicFactor":0,"roughnessFactor":1},"emissiveFactor":[0,0,0],"alphaMode":"OPAQUE","doubleSided":false}],"meshes":[{"name":"Bleu.1-Mesh","primitives":[{"attributes":{"POSITION":0,"NORMAL":1,"TEXCOORD_0":2},"indices":3,"material":0,"mode":4}]},{"name":"Bleu-Mesh","primitives":[{"attributes":{"POSITION":4,"NORMAL":5,"TEXCOORD_0":6},"indices":7,"material":1,"mode":4}]},{"name":"Noir.2-Mesh","primitives":[{"attributes":{"POSITION":8,"NORMAL":9,"TEXCOORD_0":10},"indices":11,"material":2,"mode":4}]},{"name":"Noir.1-Mesh","primitives":[{"attributes":{"POSITION":12,"NORMAL":13,"TEXCOORD_0":14},"indices":15,"material":3,"mode":4}]},{"name":"Noir-Mesh","primitives":[{"attributes":{"POSITION":16,"NORMAL":17,"TEXCOORD_0":18},"indices":19,"material":4,"mode":4}]},{"name":"Rouge_dessus-Mesh","primitives":[{"attributes":{"POSITION":20,"NORMAL":21,"TEXCOORD_0":22},"indices":23,"material":5,"mode":4}]},{"name":"Rouge_dessous-Mesh","primitives":[{"attributes":{"POSITION":24,"NORMAL":25,"TEXCOORD_0":26},"indices":27,"material":6,"mode":4}]},{"name":"jaune_big-Mesh","primitives":[{"attributes":{"POSITION":28,"NORMAL":29,"TEXCOORD_0":30},"indices":31,"material":7,"mode":4}]},{"name":"jaune_big.1-Mesh","primitives":[{"attributes":{"POSITION":32,"NORMAL":33,"TEXCOORD_0":34},"indices":35,"material":8,"mode":4}]},{"name":"jaune_big.2-Mesh","primitives":[{"attributes":{"POSITION":36,"NORMAL":37,"TEXCOORD_0":38},"indices":39,"material":9,"mode":4}]},{"name":"jaune_big.3-Mesh","primitives":[{"attributes":{"POSITION":40,"NORMAL":41,"TEXCOORD_0":42},"indices":43,"material":10,"mode":4}]},{"name":"jaune_big.4-Mesh","primitives":[{"attributes":{"POSITION":44,"NORMAL":45,"TEXCOORD_0":46},"indices":47,"material":11,"mode":4}]},{"name":"jaune_big.5-Mesh","primitives":[{"attributes":{"POSITION":48,"NORMAL":49,"TEXCOORD_0":50},"indices":51,"material":12,"mode":4}]}],"nodes":[{"name":"Bleu.1","mesh":0},{"name":"Bleu","mesh":1},{"name":"Noir.2","mesh":2},{"name":"Noir.1","mesh":3},{"name":"Noir","mesh":4},{"name":"Rouge_dessus","mesh":5},{"name":"Rouge_dessous","mesh":6},{"name":"jaune_big","mesh":7},{"name":"jaune_big.1","mesh":8},{"name":"jaune_big.2","mesh":9},{"name":"jaune_big.3","mesh":10},{"name":"jaune_big.4","mesh":11},{"name":"jaune_big.5","mesh":12}],"scene":0,"scenes":[{"nodes":[0,1,2,3,4,5,6,7,8,9,10,11,12]}]}
