{"accessors":{"accessor_0":{"bufferView":"bufferView_0","byteOffset":0,"byteStride":0,"componentType":5126,"count":24,"min":[470.614990234375,833.5777587890625,-136.8249053955078],"max":[774.783935546875,1062.0697021484375,-46.66077423095703],"type":"VEC3"},"accessor_1":{"bufferView":"bufferView_0","byteOffset":288,"byteStride":0,"componentType":5126,"count":24,"min":[-0.8333027958869934,-0.8360151648521423,-0.9971890449523926],"max":[0.8333030343055725,0.8360151648521423,0.9971890449523926],"type":"VEC3"},"accessor_2":{"bufferView":"bufferView_0","byteOffset":576,"byteStride":0,"componentType":5126,"count":24,"min":[0,0],"max":[1,1],"type":"VEC2"},"accessor_3":{"bufferView":"bufferView_1","byteOffset":0,"byteStride":0,"componentType":5123,"count":36,"min":[0],"max":[23],"type":"SCALAR"},"accessor_4":{"bufferView":"bufferView_0","byteOffset":768,"byteStride":0,"componentType":5126,"count":24,"min":[-957.8486938476562,199.76666259765625,23.994901657104492],"max":[-446.4630432128906,566.3834228515625,140.738525390625],"type":"VEC3"},"accessor_5":{"bufferView":"bufferView_0","byteOffset":1056,"byteStride":0,"componentType":5126,"count":24,"min":[-0.8522908091545105,-0.852303683757782,-0.9999849200248718],"max":[0.8522908687591553,0.852303683757782,0.9999849200248718],"type":"VEC3"},"accessor_6":{"bufferView":"bufferView_0","byteOffset":1344,"byteStride":0,"componentType":5126,"count":24,"min":[0,0],"max":[1,1],"type":"VEC2"},"accessor_7":{"bufferView":"bufferView_1","byteOffset":72,"byteStride":0,"componentType":5123,"count":36,"min":[0],"max":[23],"type":"SCALAR"},"accessor_8":{"bufferView":"bufferView_0","byteOffset":1536,"byteStride":0,"componentType":5126,"count":24,"min":[333.9203796386719,166.46908569335938,290.4701843261719],"max":[717.2440185546875,549.3330078125,570.7391967773438],"type":"VEC3"},"accessor_9":{"bufferView":"bufferView_0","byteOffset":1824,"byteStride":0,"componentType":5126,"count":24,"min":[-0.8031110763549805,-0.8031231760978699,-0.9999849200248718],"max":[0.8031110763549805,0.8031231760978699,0.9999849200248718],"type":"VEC3"},"accessor_10":{"bufferView":"bufferView_0","byteOffset":2112,"byteStride":0,"componentType":5126,"count":24,"min":[0,0],"max":[1,1],"type":"VEC2"},"accessor_11":{"bufferView":"bufferView_1","byteOffset":144,"byteStride":0,"componentType":5123,"count":36,"min":[0],"max":[23],"type":"SCALAR"},"accessor_12":{"bufferView":"bufferView_0","byteOffset":2304,"byteStride":0,"componentType":5126,"count":24,"min":[-120.1788558959961,202.0530242919922,197.41348266601562],"max":[601.53271484375,976.2112426757812,660.664306640625],"type":"VEC3"},"accessor_13":{"bufferView":"bufferView_0","byteOffset":2592,"byteStride":0,"componentType":5126,"count":24,"min":[-0.7961361408233643,-0.7961481213569641,-0.9999849200248718],"max":[0.7961360812187195,0.7961481213569641,0.9999849200248718],"type":"VEC3"},"accessor_14":{"bufferView":"bufferView_0","byteOffset":2880,"byteStride":0,"componentType":5126,"count":24,"min":[0,0],"max":[1,1],"type":"VEC2"},"accessor_15":{"bufferView":"bufferView_1","byteOffset":216,"byteStride":0,"componentType":5123,"count":36,"min":[0],"max":[23],"type":"SCALAR"},"accessor_16":{"bufferView":"bufferView_0","byteOffset":3072,"byteStride":0,"componentType":5126,"count":24,"min":[-767.353271484375,420.792236328125,388.852294921875],"max":[412.48101806640625,1643.0609130859375,464.6297912597656],"type":"VEC3"},"accessor_17":{"bufferView":"bufferView_0","byteOffset":3360,"byteStride":0,"componentType":5126,"count":24,"min":[-0.7764462232589722,-0.7764579057693481,-0.9999849200248718],"max":[0.7764461636543274,0.7764579057693481,0.9999849200248718],"type":"VEC3"},"accessor_18":{"bufferView":"bufferView_0","byteOffset":3648,"byteStride":0,"componentType":5126,"count":24,"min":[0,0],"max":[1,1],"type":"VEC2"},"accessor_19":{"bufferView":"bufferView_1","byteOffset":288,"byteStride":0,"componentType":5123,"count":36,"min":[0],"max":[23],"type":"SCALAR"},"accessor_20":{"bufferView":"bufferView_0","byteOffset":3840,"byteStride":0,"componentType":5126,"count":24,"min":[-539.263427734375,2305.20166015625,-1275.9874267578125],"max":[-190.41549682617188,2365.636474609375,-1250.7584228515625],"type":"VEC3"},"accessor_21":{"bufferView":"bufferView_0","byteOffset":4128,"byteStride":0,"componentType":5126,"count":24,"min":[-0.9934725165367126,-0.993487536907196,-0.9999849200248718],"max":[0.9934725165367126,0.993487536907196,0.9999849200248718],"type":"VEC3"},"accessor_22":{"bufferView":"bufferView_0","byteOffset":4416,"byteStride":0,"componentType":5126,"count":24,"min":[0,0],"max":[1,1],"type":"VEC2"},"accessor_23":{"bufferView":"bufferView_1","byteOffset":360,"byteStride":0,"componentType":5123,"count":36,"min":[0],"max":[23],"type":"SCALAR"},"accessor_24":{"bufferView":"bufferView_0","byteOffset":4608,"byteStride":0,"componentType":5126,"count":24,"min":[-691.510986328125,2196.384521484375,-1286.4483642578125],"max":[774.7482299804688,2314.3837890625,-1235.8299560546875],"type":"VEC3"},"accessor_25":{"bufferView":"bufferView_0","byteOffset":4896,"byteStride":0,"componentType":5126,"count":24,"min":[-0.9989058375358582,-0.9989209175109863,-0.9999849200248718],"max":[0.9989058971405029,0.9989209175109863,0.9999849200248718],"type":"VEC3"},"accessor_26":{"bufferView":"bufferView_0","byteOffset":5184,"byteStride":0,"componentType":5126,"count":24,"min":[0,0],"max":[1,1],"type":"VEC2"},"accessor_27":{"bufferView":"bufferView_1","byteOffset":432,"byteStride":0,"componentType":5123,"count":36,"min":[0],"max":[23],"type":"SCALAR"},"accessor_28":{"bufferView":"bufferView_0","byteOffset":5376,"byteStride":0,"componentType":5126,"count":24,"min":[-567.6179809570312,1560.3128662109375,-990.12548828125],"max":[323.1336975097656,2546.116455078125,-502.6402282714844],"type":"VEC3"},"accessor_29":{"bufferView":"bufferView_0","byteOffset":5664,"byteStride":0,"componentType":5126,"count":24,"min":[-0.7764462232589722,-0.7764579057693481,-0.9999849200248718],"max":[0.7764462232589722,0.7764579057693481,0.9999849200248718],"type":"VEC3"},"accessor_30":{"bufferView":"bufferView_0","byteOffset":5952,"byteStride":0,"componentType":5126,"count":24,"min":[0,0],"max":[1,1],"type":"VEC2"},"accessor_31":{"bufferView":"bufferView_1","byteOffset":504,"byteStride":0,"componentType":5123,"count":36,"min":[0],"max":[23],"type":"SCALAR"},"accessor_32":{"bufferView":"bufferView_0","byteOffset":6144,"byteStride":0,"componentType":5126,"count":24,"min":[-126.42890167236328,1668.7100830078125,-876.0623779296875],"max":[273.6296691894531,2119.824951171875,-614.55078125],"type":"VEC3"},"accessor_33":{"bufferView":"bufferView_0","byteOffset":6432,"byteStride":0,"componentType":5126,"count":24,"min":[-0.7764461040496826,-0.7764579057693481,-0.9999849200248718],"max":[0.7764461636543274,0.7764579057693481,0.9999849200248718],"type":"VEC3"},"accessor_34":{"bufferView":"bufferView_0","byteOffset":6720,"byteStride":0,"componentType":5126,"count":24,"min":[0,0],"max":[1,1],"type":"VEC2"},"accessor_35":{"bufferView":"bufferView_1","byteOffset":576,"byteStride":0,"componentType":5123,"count":36,"min":[0],"max":[23],"type":"SCALAR"},"accessor_36":{"bufferView":"bufferView_0","byteOffset":6912,"byteStride":0,"componentType":5126,"count":24,"min":[148.39613342285156,1673.56884765625,-869.1036376953125],"max":[490.4892578125,2013.3807373046875,-477.3791809082031],"type":"VEC3"},"accessor_37":{"bufferView":"bufferView_0","byteOffset":7200,"byteStride":0,"componentType":5126,"count":24,"min":[-0.7764461636543274,-0.7764579057693481,-0.9999849200248718],"max":[0.7764461040496826,0.7764579057693481,0.9999849200248718],"type":"VEC3"},"accessor_38":{"bufferView":"bufferView_0","byteOffset":7488,"byteStride":0,"componentType":5126,"count":24,"min":[0,0],"max":[1,1],"type":"VEC2"},"accessor_39":{"bufferView":"bufferView_1","byteOffset":648,"byteStride":0,"componentType":5123,"count":36,"min":[0],"max":[23],"type":"SCALAR"},"accessor_40":{"bufferView":"bufferView_0","byteOffset":7680,"byteStride":0,"componentType":5126,"count":24,"min":[-784.8198852539062,1211.583251953125,-873.7036743164062],"max":[-332.291748046875,1678.9984130859375,-623.8578491210938],"type":"VEC3"},"accessor_41":{"bufferView":"bufferView_0","byteOffset":7968,"byteStride":0,"componentType":5126,"count":24,"min":[-0.7764461636543274,-0.7764579057693481,-0.9999849200248718],"max":[0.7764461040496826,0.7764579057693481,0.9999849200248718],"type":"VEC3"},"accessor_42":{"bufferView":"bufferView_0","byteOffset":8256,"byteStride":0,"componentType":5126,"count":24,"min":[0,0],"max":[1,1],"type":"VEC2"},"accessor_43":{"bufferView":"bufferView_1","byteOffset":720,"byteStride":0,"componentType":5123,"count":36,"min":[0],"max":[23],"type":"SCALAR"},"accessor_44":{"bufferView":"bufferView_0","byteOffset":8448,"byteStride":0,"componentType":5126,"count":24,"min":[-872.8189697265625,1125.9383544921875,-751.0046997070312],"max":[-664.4464721679688,1319.54443359375,-428.5710754394531],"type":"VEC3"},"accessor_45":{"bufferView":"bufferView_0","byteOffset":8736,"byteStride":0,"componentType":5126,"count":24,"min":[-0.7764458656311035,-0.7764579057693481,-0.9999849200248718],"max":[0.7764458060264587,0.7764579057693481,0.9999849200248718],"type":"VEC3"},"accessor_46":{"bufferView":"bufferView_0","byteOffset":9024,"byteStride":0,"componentType":5126,"count":24,"min":[0,0],"max":[1,1],"type":"VEC2"},"accessor_47":{"bufferView":"bufferView_1","byteOffset":792,"byteStride":0,"componentType":5123,"count":36,"min":[0],"max":[23],"type":"SCALAR"},"accessor_48":{"bufferView":"bufferView_0","byteOffset":9216,"byteStride":0,"componentType":5126,"count":24,"min":[63.8760986328125,1439.75390625,-744.9241943359375],"max":[273.9647521972656,1637.6334228515625,-603.2130737304688],"type":"VEC3"},"accessor_49":{"bufferView":"bufferView_0","byteOffset":9504,"byteStride":0,"componentType":5126,"count":24,"min":[-0.7764461636543274,-0.7764579057693481,-0.9999849200248718],"max":[0.7764461636543274,0.7764579057693481,0.9999849200248718],"type":"VEC3"},"accessor_50":{"bufferView":"bufferView_0","byteOffset":9792,"byteStride":0,"componentType":5126,"count":24,"min":[0,0],"max":[1,1],"type":"VEC2"},"accessor_51":{"bufferView":"bufferView_1","byteOffset":864,"byteStride":0,"componentType":5123,"count":36,"min":[0],"max":[23],"type":"SCALAR"}},"asset":{"generator":"obj2gltf","profile":{"api":"WebGL","version":"1.0"},"version":"1.0","premultipliedAlpha":true},"buffers":{"buffer":{"byteLength":10920,"uri":"data:application/octet-stream;base64,","type":"arraybuffer"}},"bufferViews":{"bufferView_0":{"buffer":"buffer","byteLength":9984,"byteOffset":0,"target":34962},"bufferView_1":{"buffer":"buffer","byteLength":936,"byteOffset":9984,"target":34963}},"extensionsUsed":[],"images":{},"materials":{"RandomColor_1":{"technique":"technique0","values":{"ambient":[0,0,0,1],"diffuse":[0.12156862765551,0.45882353186607,0.99607843160629,1],"emission":[0,0,0,1],"specular":[0,0,0,1],"shininess":0,"transparency":1}},"RandomColor_2":{"technique":"technique0","values":{"ambient":[0,0,0,1],"diffuse":[0.12156862765551,0.45882353186607,0.99607843160629,1],"emission":[0,0,0,1],"specular":[0,0,0,1],"shininess":0,"transparency":1}},"RandomColor_3":{"technique":"technique0","values":{"ambient":[0,0,0,1],"diffuse":[0,0,0,1],"emission":[0,0,0,1],"specular":[0,0,0,1],"shininess":0,"transparency":1}},"RandomColor_4":{"technique":"technique0","values":{"ambient":[0,0,0,1],"diffuse":[0,0,0,1],"emission":[0,0,0,1],"specular":[0,0,0,1],"shininess":0,"transparency":1}},"RandomColor_5":{"technique":"technique0","values":{"ambient":[0,0,0,1],"diffuse":[0,0,0,1],"emission":[0,0,0,1],"specular":[0,0,0,1],"shininess":0,"transparency":1}},"RandomColor_6":{"technique":"technique0","values":{"ambient":[0,0,0,1],"diffuse":[0.99215686321259,0.28627451062202,0.23137255311012,1],"emission":[0,0,0,1],"specular":[0,0,0,1],"shininess":0,"transparency":1}},"RandomColor_7":{"technique":"technique0","values":{"ambient":[0,0,0,1],"diffuse":[0.99215686321259,0.28627451062202,0.23137255311012,1],"emission":[0,0,0,1],"specular":[0,0,0,1],"shininess":0,"transparency":1}},"RandomColor_8":{"technique":"technique0","values":{"ambient":[0,0,0,1],"diffuse":[1,1,0,1],"emission":[0,0,0,1],"specular":[0,0,0,1],"shininess":0,"transparency":1}},"RandomColor_9":{"technique":"technique0","values":{"ambient":[0,0,0,1],"diffuse":[1,1,0,1],"emission":[0,0,0,1],"specular":[0,0,0,1],"shininess":0,"transparency":1}},"RandomColor_10":{"technique":"technique0","values":{"ambient":[0,0,0,1],"diffuse":[1,1,0,1],"emission":[0,0,0,1],"specular":[0,0,0,1],"shininess":0,"transparency":1}},"RandomColor_11":{"technique":"technique0","values":{"ambient":[0,0,0,1],"diffuse":[1,1,0,1],"emission":[0,0,0,1],"specular":[0,0,0,1],"shininess":0,"transparency":1}},"RandomColor_12":{"technique":"technique0","values":{"ambient":[0,0,0,1],"diffuse":[1,1,0,1],"emission":[0,0,0,1],"specular":[0,0,0,1],"shininess":0,"transparency":1}},"RandomColor_13":{"technique":"technique0","values":{"ambient":[0,0,0,1],"diffuse":[1,1,0,1],"emission":[0,0,0,1],"specular":[0,0,0,1],"shininess":0,"transparency":1}}},"meshes":{"Bleu.1-Mesh":{"name":"Bleu.1-Mesh","primitives":[{"attributes":{"POSITION":"accessor_0","NORMAL":"accessor_1","TEXCOORD_0":"accessor_2"},"indices":"accessor_3","material":"RandomColor_1","mode":4}]},"Bleu-Mesh":{"name":"Bleu-Mesh","primitives":[{"attributes":{"POSITION":"accessor_4","NORMAL":"accessor_5","TEXCOORD_0":"accessor_6"},"indices":"accessor_7","material":"RandomColor_2","mode":4}]},"Noir.2-Mesh":{"name":"Noir.2-Mesh","primitives":[{"attributes":{"POSITION":"accessor_8","NORMAL":"accessor_9","TEXCOORD_0":"accessor_10"},"indices":"accessor_11","material":"RandomColor_3","mode":4}]},"Noir.1-Mesh":{"name":"Noir.1-Mesh","primitives":[{"attributes":{"POSITION":"accessor_12","NORMAL":"accessor_13","TEXCOORD_0":"accessor_14"},"indices":"accessor_15","material":"RandomColor_4","mode":4}]},"Noir-Mesh":{"name":"Noir-Mesh","primitives":[{"attributes":{"POSITION":"accessor_16","NORMAL":"accessor_17","TEXCOORD_0":"accessor_18"},"indices":"accessor_19","material":"RandomColor_5","mode":4}]},"Rouge_dessus-Mesh":{"name":"Rouge_dessus-Mesh","primitives":[{"attributes":{"POSITION":"accessor_20","NORMAL":"accessor_21","TEXCOORD_0":"accessor_22"},"indices":"accessor_23","material":"RandomColor_6","mode":4}]},"Rouge_dessous-Mesh":{"name":"Rouge_dessous-Mesh","primitives":[{"attributes":{"POSITION":"accessor_24","NORMAL":"accessor_25","TEXCOORD_0":"accessor_26"},"indices":"accessor_27","material":"RandomColor_7","mode":4}]},"jaune_big-Mesh":{"name":"jaune_big-Mesh","primitives":[{"attributes":{"POSITION":"accessor_28","NORMAL":"accessor_29","TEXCOORD_0":"accessor_30"},"indices":"accessor_31","material":"RandomColor_8","mode":4}]},"jaune_big.1-Mesh":{"name":"jaune_big.1-Mesh","primitives":[{"attributes":{"POSITION":"accessor_32","NORMAL":"accessor_33","TEXCOORD_0":"accessor_34"},"indices":"accessor_35","material":"RandomColor_9","mode":4}]},"jaune_big.2-Mesh":{"name":"jaune_big.2-Mesh","primitives":[{"attributes":{"POSITION":"accessor_36","NORMAL":"accessor_37","TEXCOORD_0":"accessor_38"},"indices":"accessor_39","material":"RandomColor_10","mode":4}]},"jaune_big.3-Mesh":{"name":"jaune_big.3-Mesh","primitives":[{"attributes":{"POSITION":"accessor_40","NORMAL":"accessor_41","TEXCOORD_0":"accessor_42"},"indices":"accessor_43","material":"RandomColor_11","mode":4}]},"jaune_big.4-Mesh":{"name":"jaune_big.4-Mesh","primitives":[{"attributes":{"POSITION":"accessor_44","NORMAL":"accessor_45","TEXCOORD_0":"accessor_46"},"indices":"accessor_47","material":"RandomColor_12","mode":4}]},"jaune_big.5-Mesh":{"name":"jaune_big.5-Mesh","primitives":[{"attributes":{"POSITION":"accessor_48","NORMAL":"accessor_49","TEXCOORD_0":"accessor_50"},"indices":"accessor_51","material":"RandomColor_13","mode":4}]}},"nodes":{"Bleu.1":{"name":"Bleu.1","meshes":["Bleu.1-Mesh"],"children":[],"matrix":[1,0,0,0,0,1,0,0,0,0,1,0,0,0,0,1]},"Bleu":{"name":"Bleu","meshes":["Bleu-Mesh"],"children":[],"matrix":[1,0,0,0,0,1,0,0,0,0,1,0,0,0,0,1]},"Noir.2":{"name":"Noir.2","meshes":["Noir.2-Mesh"],"children":[],"matrix":[1,0,0,0,0,1,0,0,0,0,1,0,0,0,0,1]},"Noir.1":{"name":"Noir.1","meshes":["Noir.1-Mesh"],"children":[],"matrix":[1,0,0,0,0,1,0,0,0,0,1,0,0,0,0,1]},"Noir":{"name":"Noir","meshes":["Noir-Mesh"],"children":[],"matrix":[1,0,0,0,0,1,0,0,0,0,1,0,0,0,0,1]},"Rouge_dessus":{"name":"Rouge_dessus","meshes":["Rouge_dessus-Mesh"],"children":[],"matrix":[1,0,0,0,0,1,0,0,0,0,1,0,0,0,0,1]},"Rouge_dessous":{"name":"Rouge_dessous","meshes":["Rouge_dessous-Mesh"],"children":[],"matrix":[1,0,0,0,0,1,0,0,0,0,1,0,0,0,0,1]},"jaune_big":{"name":"jaune_big","meshes":["jaune_big-Mesh"],"children":[],"matrix":[1,0,0,0,0,1,0,0,0,0,1,0,0,0,0,1]},"jaune_big.1":{"name":"jaune_big.1","meshes":["jaune_big.1-Mesh"],"children":[],"matrix":[1,0,0,0,0,1,0,0,0,0,1,0,0,0,0,1]},"jaune_big.2":{"name":"jaune_big.2","meshes":["jaune_big.2-Mesh"],"children":[],"matrix":[1,0,0,0,0,1,0,0,0,0,1,0,0,0,0,1]},"jaune_big.3":{"name":"jaune_big.3","meshes":["jaune_big.3-Mesh"],"children":[],"matrix":[1,0,0,0,0,1,0,0,0,0,1,0,0,0,0,1]},"jaune_big.4":{"name":"jaune_big.4","meshes":["jaune_big.4-Mesh"],"children":[],"matrix":[1,0,0,0,0,1,0,0,0,0,1,0,0,0,0,1]},"jaune_big.5":{"name":"jaune_big.5","meshes":["jaune_big.5-Mesh"],"children":[],"matrix":[1,0,0,0,0,1,0,0,0,0,1,0,0,0,0,1]}},"samplers":{},"scene":"scene","scenes":{"scene":{"nodes":["Bleu.1","Bleu","Noir.2","Noir.1","Noir","Rouge_dessus","Rouge_dessous","jaune_big","jaune_big.1","jaune_big.2","jaune_big.3","jaune_big.4","jaune_big.5"]}},"textures":{},"animations":{},"cameras":{},"programs":{"program0":{"attributes":["a_position","a_normal","a_texcoord_0"],"fragmentShader":"fragmentShader0","vertexShader":"vertexShader0"}},"shaders":{"vertexShader0":{"type":35633,"uri":"data:text/plain;base64,"},"fragmentShader0":{"type":35632,"uri":"data:text/plain;base64,"}},"skins":{},"techniques":{"technique0":{"attributes":{"a_position":"position","a_normal":"normal","a_texcoord_0":"texcoord_0"},"parameters":{"modelViewMatrix":{"semantic":"MODELVIEW","type":35676},"projectionMatrix":{"semantic":"PROJECTION","type":35676},"normalMatrix":{"semantic":"MODELVIEWINVERSETRANSPOSE","type":35675},"ambient":{"type":35666},"diffuse":{"type":35666},"emission":{"type":35666},"specular":{"type":35666},"shininess":{"type":5126},"transparency":{"type":5126},"position":{"semantic":"POSITION","type":35665},"normal":{"semantic":"NORMAL","type":35665},"texcoord_0":{"semantic":"TEXCOORD_0","type":5126}},"program":"program0","states":{"enable":[2884,2929]},"uniforms":{"u_modelViewMatrix":"modelViewMatrix","u_projectionMatrix":"projectionMatrix","u_normalMatrix":"normalMatrix","u_ambient":"ambient","u_diffuse":"diffuse","u_emission":"emission","u_specular":"specular","u_shininess":"shininess","u_transparency":"transparency"}}}}
